<?xml version="1.0" encoding="utf-8" standalone="no"?>
<!DOCTYPE svg PUBLIC "-//W3C//DTD SVG 1.1//EN"
  "http://www.w3.org/Graphics/SVG/1.1/DTD/svg11.dtd">
<svg xmlns:xlink="http://www.w3.org/1999/xlink" width="444.765625pt" height="337.07625pt" viewBox="0 0 444.765625 337.07625" xmlns="http://www.w3.org/2000/svg" version="1.1">
 <metadata>
  <rdf:RDF xmlns:dc="http://purl.org/dc/elements/1.1/" xmlns:cc="http://creativecommons.org/ns#" xmlns:rdf="http://www.w3.org/1999/02/22-rdf-syntax-ns#">
   <cc:Work>
    <dc:type rdf:resource="http://purl.org/dc/dcmitype/StillImage"/>
    <dc:date>2026-06-29T10:45:29.578259</dc:date>
    <dc:format>image/svg+xml</dc:format>
    <dc:creator>
     <cc:Agent>
      <dc:title>Matplotlib v3.9.2, https://matplotlib.org/</dc:title>
     </cc:Agent>
    </dc:creator>
   </cc:Work>
  </rdf:RDF>
 </metadata>
 <defs>
  <style type="text/css">*{stroke-linejoin: round; stroke-linecap: butt}</style>
 </defs>
 <g id="figure_1">
  <g id="patch_1">
   <path d="M 0 337.07625 
L 444.765625 337.07625 
L 444.765625 0 
L 0 0 
z
" style="fill: #ffffff"/>
  </g>
  <g id="axes_1">
   <g id="patch_2">
    <path d="M 46.965625 299.52 
L 437.565625 299.52 
L 437.565625 22.32 
L 46.965625 22.32 
z
" style="fill: #ffffff"/>
   </g>
   <g id="matplotlib.axis_1">
    <g id="xtick_1">
     <g id="line2d_1">
      <defs>
       <path id="m45480d04b4" d="M 0 0 
L 0 3.5 
" style="stroke: #000000; stroke-width: 0.8"/>
      </defs>
      <g>
       <use xlink:href="#m45480d04b4" x="64.72017" y="299.52" style="stroke: #000000; stroke-width: 0.8"/>
      </g>
     </g>
     <g id="text_1">
      <!-- 0.0 -->
      <g transform="translate(56.768608 314.118438) scale(0.1 -0.1)">
       <defs>
        <path id="DejaVuSans-30" d="M 2034 4250 
Q 1547 4250 1301 3770 
Q 1056 3291 1056 2328 
Q 1056 1369 1301 889 
Q 1547 409 2034 409 
Q 2525 409 2770 889 
Q 3016 1369 3016 2328 
Q 3016 3291 2770 3770 
Q 2525 4250 2034 4250 
z
M 2034 4750 
Q 2819 4750 3233 4129 
Q 3647 3509 3647 2328 
Q 3647 1150 3233 529 
Q 2819 -91 2034 -91 
Q 1250 -91 836 529 
Q 422 1150 422 2328 
Q 422 3509 836 4129 
Q 1250 4750 2034 4750 
z
" transform="scale(0.015625)"/>
        <path id="DejaVuSans-2e" d="M 684 794 
L 1344 794 
L 1344 0 
L 684 0 
L 684 794 
z
" transform="scale(0.015625)"/>
       </defs>
       <use xlink:href="#DejaVuSans-30"/>
       <use xlink:href="#DejaVuSans-2e" x="63.623047"/>
       <use xlink:href="#DejaVuSans-30" x="95.410156"/>
      </g>
     </g>
    </g>
    <g id="xtick_2">
     <g id="line2d_2">
      <g>
       <use xlink:href="#m45480d04b4" x="135.738352" y="299.52" style="stroke: #000000; stroke-width: 0.8"/>
      </g>
     </g>
     <g id="text_2">
      <!-- 0.2 -->
      <g transform="translate(127.78679 314.118438) scale(0.1 -0.1)">
       <defs>
        <path id="DejaVuSans-32" d="M 1228 531 
L 3431 531 
L 3431 0 
L 469 0 
L 469 531 
Q 828 903 1448 1529 
Q 2069 2156 2228 2338 
Q 2531 2678 2651 2914 
Q 2772 3150 2772 3378 
Q 2772 3750 2511 3984 
Q 2250 4219 1831 4219 
Q 1534 4219 1204 4116 
Q 875 4013 500 3803 
L 500 4441 
Q 881 4594 1212 4672 
Q 1544 4750 1819 4750 
Q 2544 4750 2975 4387 
Q 3406 4025 3406 3419 
Q 3406 3131 3298 2873 
Q 3191 2616 2906 2266 
Q 2828 2175 2409 1742 
Q 1991 1309 1228 531 
z
" transform="scale(0.015625)"/>
       </defs>
       <use xlink:href="#DejaVuSans-30"/>
       <use xlink:href="#DejaVuSans-2e" x="63.623047"/>
       <use xlink:href="#DejaVuSans-32" x="95.410156"/>
      </g>
     </g>
    </g>
    <g id="xtick_3">
     <g id="line2d_3">
      <g>
       <use xlink:href="#m45480d04b4" x="206.756534" y="299.52" style="stroke: #000000; stroke-width: 0.8"/>
      </g>
     </g>
     <g id="text_3">
      <!-- 0.4 -->
      <g transform="translate(198.804972 314.118438) scale(0.1 -0.1)">
       <defs>
        <path id="DejaVuSans-34" d="M 2419 4116 
L 825 1625 
L 2419 1625 
L 2419 4116 
z
M 2253 4666 
L 3047 4666 
L 3047 1625 
L 3713 1625 
L 3713 1100 
L 3047 1100 
L 3047 0 
L 2419 0 
L 2419 1100 
L 313 1100 
L 313 1709 
L 2253 4666 
z
" transform="scale(0.015625)"/>
       </defs>
       <use xlink:href="#DejaVuSans-30"/>
       <use xlink:href="#DejaVuSans-2e" x="63.623047"/>
       <use xlink:href="#DejaVuSans-34" x="95.410156"/>
      </g>
     </g>
    </g>
    <g id="xtick_4">
     <g id="line2d_4">
      <g>
       <use xlink:href="#m45480d04b4" x="277.774716" y="299.52" style="stroke: #000000; stroke-width: 0.8"/>
      </g>
     </g>
     <g id="text_4">
      <!-- 0.6 -->
      <g transform="translate(269.823153 314.118438) scale(0.1 -0.1)">
       <defs>
        <path id="DejaVuSans-36" d="M 2113 2584 
Q 1688 2584 1439 2293 
Q 1191 2003 1191 1497 
Q 1191 994 1439 701 
Q 1688 409 2113 409 
Q 2538 409 2786 701 
Q 3034 994 3034 1497 
Q 3034 2003 2786 2293 
Q 2538 2584 2113 2584 
z
M 3366 4563 
L 3366 3988 
Q 3128 4100 2886 4159 
Q 2644 4219 2406 4219 
Q 1781 4219 1451 3797 
Q 1122 3375 1075 2522 
Q 1259 2794 1537 2939 
Q 1816 3084 2150 3084 
Q 2853 3084 3261 2657 
Q 3669 2231 3669 1497 
Q 3669 778 3244 343 
Q 2819 -91 2113 -91 
Q 1303 -91 875 529 
Q 447 1150 447 2328 
Q 447 3434 972 4092 
Q 1497 4750 2381 4750 
Q 2619 4750 2861 4703 
Q 3103 4656 3366 4563 
z
" transform="scale(0.015625)"/>
       </defs>
       <use xlink:href="#DejaVuSans-30"/>
       <use xlink:href="#DejaVuSans-2e" x="63.623047"/>
       <use xlink:href="#DejaVuSans-36" x="95.410156"/>
      </g>
     </g>
    </g>
    <g id="xtick_5">
     <g id="line2d_5">
      <g>
       <use xlink:href="#m45480d04b4" x="348.792898" y="299.52" style="stroke: #000000; stroke-width: 0.8"/>
      </g>
     </g>
     <g id="text_5">
      <!-- 0.8 -->
      <g transform="translate(340.841335 314.118438) scale(0.1 -0.1)">
       <defs>
        <path id="DejaVuSans-38" d="M 2034 2216 
Q 1584 2216 1326 1975 
Q 1069 1734 1069 1313 
Q 1069 891 1326 650 
Q 1584 409 2034 409 
Q 2484 409 2743 651 
Q 3003 894 3003 1313 
Q 3003 1734 2745 1975 
Q 2488 2216 2034 2216 
z
M 1403 2484 
Q 997 2584 770 2862 
Q 544 3141 544 3541 
Q 544 4100 942 4425 
Q 1341 4750 2034 4750 
Q 2731 4750 3128 4425 
Q 3525 4100 3525 3541 
Q 3525 3141 3298 2862 
Q 3072 2584 2669 2484 
Q 3125 2378 3379 2068 
Q 3634 1759 3634 1313 
Q 3634 634 3220 271 
Q 2806 -91 2034 -91 
Q 1263 -91 848 271 
Q 434 634 434 1313 
Q 434 1759 690 2068 
Q 947 2378 1403 2484 
z
M 1172 3481 
Q 1172 3119 1398 2916 
Q 1625 2713 2034 2713 
Q 2441 2713 2670 2916 
Q 2900 3119 2900 3481 
Q 2900 3844 2670 4047 
Q 2441 4250 2034 4250 
Q 1625 4250 1398 4047 
Q 1172 3844 1172 3481 
z
" transform="scale(0.015625)"/>
       </defs>
       <use xlink:href="#DejaVuSans-30"/>
       <use xlink:href="#DejaVuSans-2e" x="63.623047"/>
       <use xlink:href="#DejaVuSans-38" x="95.410156"/>
      </g>
     </g>
    </g>
    <g id="xtick_6">
     <g id="line2d_6">
      <g>
       <use xlink:href="#m45480d04b4" x="419.81108" y="299.52" style="stroke: #000000; stroke-width: 0.8"/>
      </g>
     </g>
     <g id="text_6">
      <!-- 1.0 -->
      <g transform="translate(411.859517 314.118438) scale(0.1 -0.1)">
       <defs>
        <path id="DejaVuSans-31" d="M 794 531 
L 1825 531 
L 1825 4091 
L 703 3866 
L 703 4441 
L 1819 4666 
L 2450 4666 
L 2450 531 
L 3481 531 
L 3481 0 
L 794 0 
L 794 531 
z
" transform="scale(0.015625)"/>
       </defs>
       <use xlink:href="#DejaVuSans-31"/>
       <use xlink:href="#DejaVuSans-2e" x="63.623047"/>
       <use xlink:href="#DejaVuSans-30" x="95.410156"/>
      </g>
     </g>
    </g>
    <g id="text_7">
     <!-- Input current I (nA) -->
     <g transform="translate(194.551562 327.796562) scale(0.1 -0.1)">
      <defs>
       <path id="DejaVuSans-49" d="M 628 4666 
L 1259 4666 
L 1259 0 
L 628 0 
L 628 4666 
z
" transform="scale(0.015625)"/>
       <path id="DejaVuSans-6e" d="M 3513 2113 
L 3513 0 
L 2938 0 
L 2938 2094 
Q 2938 2591 2744 2837 
Q 2550 3084 2163 3084 
Q 1697 3084 1428 2787 
Q 1159 2491 1159 1978 
L 1159 0 
L 581 0 
L 581 3500 
L 1159 3500 
L 1159 2956 
Q 1366 3272 1645 3428 
Q 1925 3584 2291 3584 
Q 2894 3584 3203 3211 
Q 3513 2838 3513 2113 
z
" transform="scale(0.015625)"/>
       <path id="DejaVuSans-70" d="M 1159 525 
L 1159 -1331 
L 581 -1331 
L 581 3500 
L 1159 3500 
L 1159 2969 
Q 1341 3281 1617 3432 
Q 1894 3584 2278 3584 
Q 2916 3584 3314 3078 
Q 3713 2572 3713 1747 
Q 3713 922 3314 415 
Q 2916 -91 2278 -91 
Q 1894 -91 1617 61 
Q 1341 213 1159 525 
z
M 3116 1747 
Q 3116 2381 2855 2742 
Q 2594 3103 2138 3103 
Q 1681 3103 1420 2742 
Q 1159 2381 1159 1747 
Q 1159 1113 1420 752 
Q 1681 391 2138 391 
Q 2594 391 2855 752 
Q 3116 1113 3116 1747 
z
" transform="scale(0.015625)"/>
       <path id="DejaVuSans-75" d="M 544 1381 
L 544 3500 
L 1119 3500 
L 1119 1403 
Q 1119 906 1312 657 
Q 1506 409 1894 409 
Q 2359 409 2629 706 
Q 2900 1003 2900 1516 
L 2900 3500 
L 3475 3500 
L 3475 0 
L 2900 0 
L 2900 538 
Q 2691 219 2414 64 
Q 2138 -91 1772 -91 
Q 1169 -91 856 284 
Q 544 659 544 1381 
z
M 1991 3584 
L 1991 3584 
z
" transform="scale(0.015625)"/>
       <path id="DejaVuSans-74" d="M 1172 4494 
L 1172 3500 
L 2356 3500 
L 2356 3053 
L 1172 3053 
L 1172 1153 
Q 1172 725 1289 603 
Q 1406 481 1766 481 
L 2356 481 
L 2356 0 
L 1766 0 
Q 1100 0 847 248 
Q 594 497 594 1153 
L 594 3053 
L 172 3053 
L 172 3500 
L 594 3500 
L 594 4494 
L 1172 4494 
z
" transform="scale(0.015625)"/>
       <path id="DejaVuSans-20" transform="scale(0.015625)"/>
       <path id="DejaVuSans-63" d="M 3122 3366 
L 3122 2828 
Q 2878 2963 2633 3030 
Q 2388 3097 2138 3097 
Q 1578 3097 1268 2742 
Q 959 2388 959 1747 
Q 959 1106 1268 751 
Q 1578 397 2138 397 
Q 2388 397 2633 464 
Q 2878 531 3122 666 
L 3122 134 
Q 2881 22 2623 -34 
Q 2366 -91 2075 -91 
Q 1284 -91 818 406 
Q 353 903 353 1747 
Q 353 2603 823 3093 
Q 1294 3584 2113 3584 
Q 2378 3584 2631 3529 
Q 2884 3475 3122 3366 
z
" transform="scale(0.015625)"/>
       <path id="DejaVuSans-72" d="M 2631 2963 
Q 2534 3019 2420 3045 
Q 2306 3072 2169 3072 
Q 1681 3072 1420 2755 
Q 1159 2438 1159 1844 
L 1159 0 
L 581 0 
L 581 3500 
L 1159 3500 
L 1159 2956 
Q 1341 3275 1631 3429 
Q 1922 3584 2338 3584 
Q 2397 3584 2469 3576 
Q 2541 3569 2628 3553 
L 2631 2963 
z
" transform="scale(0.015625)"/>
       <path id="DejaVuSans-65" d="M 3597 1894 
L 3597 1613 
L 953 1613 
Q 991 1019 1311 708 
Q 1631 397 2203 397 
Q 2534 397 2845 478 
Q 3156 559 3463 722 
L 3463 178 
Q 3153 47 2828 -22 
Q 2503 -91 2169 -91 
Q 1331 -91 842 396 
Q 353 884 353 1716 
Q 353 2575 817 3079 
Q 1281 3584 2069 3584 
Q 2775 3584 3186 3129 
Q 3597 2675 3597 1894 
z
M 3022 2063 
Q 3016 2534 2758 2815 
Q 2500 3097 2075 3097 
Q 1594 3097 1305 2825 
Q 1016 2553 972 2059 
L 3022 2063 
z
" transform="scale(0.015625)"/>
       <path id="DejaVuSans-28" d="M 1984 4856 
Q 1566 4138 1362 3434 
Q 1159 2731 1159 2009 
Q 1159 1288 1364 580 
Q 1569 -128 1984 -844 
L 1484 -844 
Q 1016 -109 783 600 
Q 550 1309 550 2009 
Q 550 2706 781 3412 
Q 1013 4119 1484 4856 
L 1984 4856 
z
" transform="scale(0.015625)"/>
       <path id="DejaVuSans-41" d="M 2188 4044 
L 1331 1722 
L 3047 1722 
L 2188 4044 
z
M 1831 4666 
L 2547 4666 
L 4325 0 
L 3669 0 
L 3244 1197 
L 1141 1197 
L 716 0 
L 50 0 
L 1831 4666 
z
" transform="scale(0.015625)"/>
       <path id="DejaVuSans-29" d="M 513 4856 
L 1013 4856 
Q 1481 4119 1714 3412 
Q 1947 2706 1947 2009 
Q 1947 1309 1714 600 
Q 1481 -109 1013 -844 
L 513 -844 
Q 928 -128 1133 580 
Q 1338 1288 1338 2009 
Q 1338 2731 1133 3434 
Q 928 4138 513 4856 
z
" transform="scale(0.015625)"/>
      </defs>
      <use xlink:href="#DejaVuSans-49"/>
      <use xlink:href="#DejaVuSans-6e" x="29.492188"/>
      <use xlink:href="#DejaVuSans-70" x="92.871094"/>
      <use xlink:href="#DejaVuSans-75" x="156.347656"/>
      <use xlink:href="#DejaVuSans-74" x="219.726562"/>
      <use xlink:href="#DejaVuSans-20" x="258.935547"/>
      <use xlink:href="#DejaVuSans-63" x="290.722656"/>
      <use xlink:href="#DejaVuSans-75" x="345.703125"/>
      <use xlink:href="#DejaVuSans-72" x="409.082031"/>
      <use xlink:href="#DejaVuSans-72" x="448.445312"/>
      <use xlink:href="#DejaVuSans-65" x="487.308594"/>
      <use xlink:href="#DejaVuSans-6e" x="548.832031"/>
      <use xlink:href="#DejaVuSans-74" x="612.210938"/>
      <use xlink:href="#DejaVuSans-20" x="651.419922"/>
      <use xlink:href="#DejaVuSans-49" x="683.207031"/>
      <use xlink:href="#DejaVuSans-20" x="712.699219"/>
      <use xlink:href="#DejaVuSans-28" x="744.486328"/>
      <use xlink:href="#DejaVuSans-6e" x="783.5"/>
      <use xlink:href="#DejaVuSans-41" x="846.878906"/>
      <use xlink:href="#DejaVuSans-29" x="915.287109"/>
     </g>
    </g>
   </g>
   <g id="matplotlib.axis_2">
    <g id="ytick_1">
     <g id="line2d_7">
      <defs>
       <path id="mbd27e066fa" d="M 0 0 
L -3.5 0 
" style="stroke: #000000; stroke-width: 0.8"/>
      </defs>
      <g>
       <use xlink:href="#mbd27e066fa" x="46.965625" y="286.920008" style="stroke: #000000; stroke-width: 0.8"/>
      </g>
     </g>
     <g id="text_8">
      <!-- 0 -->
      <g transform="translate(33.603125 290.719227) scale(0.1 -0.1)">
       <use xlink:href="#DejaVuSans-30"/>
      </g>
     </g>
    </g>
    <g id="ytick_2">
     <g id="line2d_8">
      <g>
       <use xlink:href="#mbd27e066fa" x="46.965625" y="235.975409" style="stroke: #000000; stroke-width: 0.8"/>
      </g>
     </g>
     <g id="text_9">
      <!-- 20 -->
      <g transform="translate(27.240625 239.774628) scale(0.1 -0.1)">
       <use xlink:href="#DejaVuSans-32"/>
       <use xlink:href="#DejaVuSans-30" x="63.623047"/>
      </g>
     </g>
    </g>
    <g id="ytick_3">
     <g id="line2d_9">
      <g>
       <use xlink:href="#mbd27e066fa" x="46.965625" y="185.030809" style="stroke: #000000; stroke-width: 0.8"/>
      </g>
     </g>
     <g id="text_10">
      <!-- 40 -->
      <g transform="translate(27.240625 188.830028) scale(0.1 -0.1)">
       <use xlink:href="#DejaVuSans-34"/>
       <use xlink:href="#DejaVuSans-30" x="63.623047"/>
      </g>
     </g>
    </g>
    <g id="ytick_4">
     <g id="line2d_10">
      <g>
       <use xlink:href="#mbd27e066fa" x="46.965625" y="134.08621" style="stroke: #000000; stroke-width: 0.8"/>
      </g>
     </g>
     <g id="text_11">
      <!-- 60 -->
      <g transform="translate(27.240625 137.885429) scale(0.1 -0.1)">
       <use xlink:href="#DejaVuSans-36"/>
       <use xlink:href="#DejaVuSans-30" x="63.623047"/>
      </g>
     </g>
    </g>
    <g id="ytick_5">
     <g id="line2d_11">
      <g>
       <use xlink:href="#mbd27e066fa" x="46.965625" y="83.141611" style="stroke: #000000; stroke-width: 0.8"/>
      </g>
     </g>
     <g id="text_12">
      <!-- 80 -->
      <g transform="translate(27.240625 86.940829) scale(0.1 -0.1)">
       <use xlink:href="#DejaVuSans-38"/>
       <use xlink:href="#DejaVuSans-30" x="63.623047"/>
      </g>
     </g>
    </g>
    <g id="ytick_6">
     <g id="line2d_12">
      <g>
       <use xlink:href="#mbd27e066fa" x="46.965625" y="32.197011" style="stroke: #000000; stroke-width: 0.8"/>
      </g>
     </g>
     <g id="text_13">
      <!-- 100 -->
      <g transform="translate(20.878125 35.99623) scale(0.1 -0.1)">
       <use xlink:href="#DejaVuSans-31"/>
       <use xlink:href="#DejaVuSans-30" x="63.623047"/>
       <use xlink:href="#DejaVuSans-30" x="127.246094"/>
      </g>
     </g>
    </g>
    <g id="text_14">
     <!-- Firing rate (Hz) -->
     <g transform="translate(14.798437 198.230156) rotate(-90) scale(0.1 -0.1)">
      <defs>
       <path id="DejaVuSans-46" d="M 628 4666 
L 3309 4666 
L 3309 4134 
L 1259 4134 
L 1259 2759 
L 3109 2759 
L 3109 2228 
L 1259 2228 
L 1259 0 
L 628 0 
L 628 4666 
z
" transform="scale(0.015625)"/>
       <path id="DejaVuSans-69" d="M 603 3500 
L 1178 3500 
L 1178 0 
L 603 0 
L 603 3500 
z
M 603 4863 
L 1178 4863 
L 1178 4134 
L 603 4134 
L 603 4863 
z
" transform="scale(0.015625)"/>
       <path id="DejaVuSans-67" d="M 2906 1791 
Q 2906 2416 2648 2759 
Q 2391 3103 1925 3103 
Q 1463 3103 1205 2759 
Q 947 2416 947 1791 
Q 947 1169 1205 825 
Q 1463 481 1925 481 
Q 2391 481 2648 825 
Q 2906 1169 2906 1791 
z
M 3481 434 
Q 3481 -459 3084 -895 
Q 2688 -1331 1869 -1331 
Q 1566 -1331 1297 -1286 
Q 1028 -1241 775 -1147 
L 775 -588 
Q 1028 -725 1275 -790 
Q 1522 -856 1778 -856 
Q 2344 -856 2625 -561 
Q 2906 -266 2906 331 
L 2906 616 
Q 2728 306 2450 153 
Q 2172 0 1784 0 
Q 1141 0 747 490 
Q 353 981 353 1791 
Q 353 2603 747 3093 
Q 1141 3584 1784 3584 
Q 2172 3584 2450 3431 
Q 2728 3278 2906 2969 
L 2906 3500 
L 3481 3500 
L 3481 434 
z
" transform="scale(0.015625)"/>
       <path id="DejaVuSans-61" d="M 2194 1759 
Q 1497 1759 1228 1600 
Q 959 1441 959 1056 
Q 959 750 1161 570 
Q 1363 391 1709 391 
Q 2188 391 2477 730 
Q 2766 1069 2766 1631 
L 2766 1759 
L 2194 1759 
z
M 3341 1997 
L 3341 0 
L 2766 0 
L 2766 531 
Q 2569 213 2275 61 
Q 1981 -91 1556 -91 
Q 1019 -91 701 211 
Q 384 513 384 1019 
Q 384 1609 779 1909 
Q 1175 2209 1959 2209 
L 2766 2209 
L 2766 2266 
Q 2766 2663 2505 2880 
Q 2244 3097 1772 3097 
Q 1472 3097 1187 3025 
Q 903 2953 641 2809 
L 641 3341 
Q 956 3463 1253 3523 
Q 1550 3584 1831 3584 
Q 2591 3584 2966 3190 
Q 3341 2797 3341 1997 
z
" transform="scale(0.015625)"/>
       <path id="DejaVuSans-48" d="M 628 4666 
L 1259 4666 
L 1259 2753 
L 3553 2753 
L 3553 4666 
L 4184 4666 
L 4184 0 
L 3553 0 
L 3553 2222 
L 1259 2222 
L 1259 0 
L 628 0 
L 628 4666 
z
" transform="scale(0.015625)"/>
       <path id="DejaVuSans-7a" d="M 353 3500 
L 3084 3500 
L 3084 2975 
L 922 459 
L 3084 459 
L 3084 0 
L 275 0 
L 275 525 
L 2438 3041 
L 353 3041 
L 353 3500 
z
" transform="scale(0.015625)"/>
      </defs>
      <use xlink:href="#DejaVuSans-46"/>
      <use xlink:href="#DejaVuSans-69" x="50.269531"/>
      <use xlink:href="#DejaVuSans-72" x="78.052734"/>
      <use xlink:href="#DejaVuSans-69" x="119.166016"/>
      <use xlink:href="#DejaVuSans-6e" x="146.949219"/>
      <use xlink:href="#DejaVuSans-67" x="210.328125"/>
      <use xlink:href="#DejaVuSans-20" x="273.804688"/>
      <use xlink:href="#DejaVuSans-72" x="305.591797"/>
      <use xlink:href="#DejaVuSans-61" x="346.705078"/>
      <use xlink:href="#DejaVuSans-74" x="407.984375"/>
      <use xlink:href="#DejaVuSans-65" x="447.193359"/>
      <use xlink:href="#DejaVuSans-20" x="508.716797"/>
      <use xlink:href="#DejaVuSans-28" x="540.503906"/>
      <use xlink:href="#DejaVuSans-48" x="579.517578"/>
      <use xlink:href="#DejaVuSans-7a" x="654.712891"/>
      <use xlink:href="#DejaVuSans-29" x="707.203125"/>
     </g>
    </g>
   </g>
   <g id="line2d_13">
    <path d="M 64.72017 286.92 
L 68.306947 286.919996 
L 71.893724 286.91999 
L 75.480501 286.919981 
L 79.067278 286.919968 
L 82.654055 286.919949 
L 86.240832 286.91992 
L 89.827608 286.919877 
L 93.414385 286.919815 
L 97.001162 286.919722 
L 100.587939 286.919586 
L 104.174716 286.919386 
L 107.761493 286.919092 
L 111.34827 286.91866 
L 114.935046 286.918028 
L 118.521823 286.917105 
L 122.1086 286.915758 
L 125.695377 286.913798 
L 129.282154 286.910951 
L 132.868931 286.906829 
L 136.455708 286.900876 
L 140.042485 286.892308 
L 143.629261 286.880019 
L 147.216038 286.862463 
L 150.802815 286.837497 
L 154.389592 286.802171 
L 157.976369 286.752471 
L 161.563146 286.682999 
L 165.149923 286.586595 
L 168.736699 286.453928 
L 172.323476 286.273065 
L 175.910253 286.0291 
L 179.49703 285.703928 
L 183.083807 285.276268 
L 186.670584 284.722084 
L 190.257361 284.015504 
L 193.844137 283.130299 
L 197.430914 282.041858 
L 201.017691 280.729435 
L 204.604468 279.178339 
L 208.191245 277.381632 
L 211.778022 275.340976 
L 215.364799 273.066425 
L 218.951575 270.575223 
L 222.538352 267.889863 
L 226.125129 265.035832 
L 229.711906 262.039433 
L 233.298683 258.925978 
L 236.88546 255.718531 
L 240.472237 252.437182 
L 244.059013 249.098802 
L 247.64579 245.71712 
L 251.232567 242.303027 
L 254.819344 238.864974 
L 258.406121 235.409398 
L 261.992898 231.941128 
L 265.579675 228.463737 
L 269.166451 224.979837 
L 272.753228 221.491323 
L 276.340005 217.999555 
L 279.926782 214.505505 
L 283.513559 211.009859 
L 287.100336 207.513103 
L 290.687113 204.015576 
L 294.273889 200.517518 
L 297.860666 197.019091 
L 301.447443 193.520413 
L 305.03422 190.02156 
L 308.620997 186.522589 
L 312.207774 183.023537 
L 315.794551 179.52443 
L 319.381327 176.025284 
L 322.968104 172.526113 
L 326.554881 169.026925 
L 330.141658 165.527725 
L 333.728435 162.028516 
L 337.315212 158.529303 
L 340.901989 155.030085 
L 344.488765 151.530865 
L 348.075542 148.031644 
L 351.662319 144.532421 
L 355.249096 141.033198 
L 358.835873 137.533974 
L 362.42265 134.034749 
L 366.009427 130.535525 
L 369.596204 127.0363 
L 373.18298 123.537075 
L 376.769757 120.03785 
L 380.356534 116.538626 
L 383.943311 113.039401 
L 387.530088 109.540176 
L 391.116865 106.040951 
L 394.703642 102.541726 
L 398.290418 99.042501 
L 401.877195 95.543276 
L 405.463972 92.044051 
L 409.050749 88.544826 
L 412.637526 85.045601 
L 416.224303 81.546376 
L 419.81108 78.047151 
" clip-path="url(#p7e9db44dc9)" style="fill: none; stroke: #2ca02c; stroke-width: 1.5; stroke-linecap: square"/>
   </g>
   <g id="line2d_14">
    <path d="M 64.72017 286.92 
L 68.306947 286.919996 
L 71.893724 286.91999 
L 75.480501 286.91998 
L 79.067278 286.919966 
L 82.654055 286.919945 
L 86.240832 286.919913 
L 89.827608 286.919866 
L 93.414385 286.919796 
L 97.001162 286.919691 
L 100.587939 286.919534 
L 104.174716 286.919301 
L 107.761493 286.918955 
L 111.34827 286.918441 
L 114.935046 286.917682 
L 118.521823 286.91656 
L 122.1086 286.914907 
L 125.695377 286.912476 
L 129.282154 286.908911 
L 132.868931 286.903699 
L 136.455708 286.896103 
L 140.042485 286.885073 
L 143.629261 286.869121 
L 147.216038 286.846158 
L 150.802815 286.813271 
L 154.389592 286.766445 
L 157.976369 286.700214 
L 161.563146 286.607241 
L 165.149923 286.477844 
L 168.736699 286.299504 
L 172.323476 286.056417 
L 175.910253 285.729196 
L 179.49703 285.294866 
L 183.083807 284.727307 
L 186.670584 283.998286 
L 190.257361 283.07916 
L 193.844137 281.943159 
L 197.430914 280.568002 
L 201.017691 278.938398 
L 204.604468 277.047935 
L 208.191245 274.89991 
L 211.778022 272.506897 
L 215.364799 269.889169 
L 218.951575 267.072331 
L 222.538352 264.084693 
L 226.125129 260.954837 
L 229.711906 257.709713 
L 233.298683 254.373393 
L 236.88546 250.966441 
L 240.472237 247.505803 
L 244.059013 244.005017 
L 247.64579 240.474631 
L 251.232567 236.92269 
L 254.819344 233.355216 
L 258.406121 229.776653 
L 261.992898 226.190237 
L 265.579675 222.598297 
L 269.166451 219.002497 
L 272.753228 215.404011 
L 276.340005 211.803668 
L 279.926782 208.202044 
L 283.513559 204.599542 
L 287.100336 200.996438 
L 290.687113 197.392923 
L 294.273889 193.789129 
L 297.860666 190.185146 
L 301.447443 186.581035 
L 305.03422 182.976836 
L 308.620997 179.37258 
L 312.207774 175.768283 
L 315.794551 172.16396 
L 319.381327 168.55962 
L 322.968104 164.955267 
L 326.554881 161.350907 
L 330.141658 157.746541 
L 333.728435 154.142172 
L 337.315212 150.5378 
L 340.901989 146.933426 
L 344.488765 143.329052 
L 348.075542 139.724677 
L 351.662319 136.120301 
L 355.249096 132.515925 
L 358.835873 128.911549 
L 362.42265 125.307173 
L 366.009427 121.702797 
L 369.596204 118.09842 
L 373.18298 114.494044 
L 376.769757 110.889667 
L 380.356534 107.285291 
L 383.943311 103.680914 
L 387.530088 100.076538 
L 391.116865 96.472161 
L 394.703642 92.867785 
L 398.290418 89.263408 
L 401.877195 85.659031 
L 405.463972 82.054655 
L 409.050749 78.450278 
L 412.637526 74.845902 
L 416.224303 71.241525 
L 419.81108 67.637149 
" clip-path="url(#p7e9db44dc9)" style="fill: none; stroke: #2ca02c; stroke-width: 1.5; stroke-linecap: square"/>
   </g>
   <g id="line2d_15">
    <path d="M 64.72017 286.92 
L 68.306947 286.919996 
L 71.893724 286.919989 
L 75.480501 286.919979 
L 79.067278 286.919964 
L 82.654055 286.919941 
L 86.240832 286.919907 
L 89.827608 286.919854 
L 93.414385 286.919775 
L 97.001162 286.919655 
L 100.587939 286.919475 
L 104.174716 286.919204 
L 107.761493 286.918797 
L 111.34827 286.918188 
L 114.935046 286.917276 
L 118.521823 286.915914 
L 122.1086 286.913887 
L 125.695377 286.910877 
L 129.282154 286.90642 
L 132.868931 286.899841 
L 136.455708 286.890168 
L 140.042485 286.876002 
L 143.629261 286.855352 
L 147.216038 286.825407 
L 150.802815 286.782241 
L 154.389592 286.720435 
L 157.976369 286.632619 
L 161.563146 286.508941 
L 165.149923 286.336497 
L 168.736699 286.098798 
L 172.323476 285.77538 
L 175.910253 285.341729 
L 179.49703 284.769714 
L 183.083807 284.028701 
L 186.670584 283.08745 
L 190.257361 281.916725 
L 193.844137 280.492296 
L 197.430914 278.797827 
L 201.017691 276.827006 
L 204.604468 274.584416 
L 208.191245 272.0849 
L 211.778022 269.351599 
L 215.364799 266.413156 
L 218.951575 263.300676 
L 222.538352 260.045041 
L 226.125129 256.67488 
L 229.711906 253.215332 
L 233.298683 249.687516 
L 236.88546 246.108541 
L 240.472237 242.491852 
L 244.059013 238.847752 
L 247.64579 235.183974 
L 251.232567 231.506215 
L 254.819344 227.818615 
L 258.406121 224.124142 
L 261.992898 220.424901 
L 265.579675 216.722373 
L 269.166451 213.017591 
L 272.753228 209.31127 
L 276.340005 205.603902 
L 279.926782 201.895826 
L 283.513559 198.18727 
L 287.100336 194.478393 
L 290.687113 190.769299 
L 294.273889 187.06006 
L 297.860666 183.350724 
L 301.447443 179.641324 
L 305.03422 175.931881 
L 308.620997 172.222409 
L 312.207774 168.512918 
L 315.794551 164.803414 
L 319.381327 161.093902 
L 322.968104 157.384385 
L 326.554881 153.674864 
L 330.141658 149.96534 
L 333.728435 146.255815 
L 337.315212 142.546289 
L 340.901989 138.836762 
L 344.488765 135.127235 
L 348.075542 131.417707 
L 351.662319 127.70818 
L 355.249096 123.998652 
L 358.835873 120.289124 
L 362.42265 116.579596 
L 366.009427 112.870068 
L 369.596204 109.16054 
L 373.18298 105.451012 
L 376.769757 101.741484 
L 380.356534 98.031956 
L 383.943311 94.322428 
L 387.530088 90.6129 
L 391.116865 86.903372 
L 394.703642 83.193843 
L 398.290418 79.484315 
L 401.877195 75.774787 
L 405.463972 72.065259 
L 409.050749 68.355731 
L 412.637526 64.646203 
L 416.224303 60.936675 
L 419.81108 57.227147 
" clip-path="url(#p7e9db44dc9)" style="fill: none; stroke: #2ca02c; stroke-width: 1.5; stroke-linecap: square"/>
   </g>
   <g id="line2d_16">
    <path d="M 64.72017 286.92 
L 68.306947 286.919996 
L 71.893724 286.919989 
L 75.480501 286.919978 
L 79.067278 286.919962 
L 82.654055 286.919936 
L 86.240832 286.919898 
L 89.827608 286.919839 
L 93.414385 286.919748 
L 97.001162 286.91961 
L 100.587939 286.919399 
L 104.174716 286.919078 
L 107.761493 286.918589 
L 111.34827 286.917848 
L 114.935046 286.916725 
L 118.521823 286.915029 
L 122.1086 286.912475 
L 125.695377 286.908639 
L 129.282154 286.902896 
L 132.868931 286.894331 
L 136.455708 286.881612 
L 140.042485 286.86281 
L 143.629261 286.835167 
L 147.216038 286.794769 
L 150.802815 286.736142 
L 154.389592 286.651734 
L 157.976369 286.531314 
L 161.563146 286.361307 
L 165.149923 286.124152 
L 168.736699 285.797822 
L 172.323476 285.355678 
L 175.910253 284.766932 
L 179.49703 283.997913 
L 183.083807 283.014287 
L 186.670584 281.784115 
L 190.257361 280.281387 
L 193.844137 278.489343 
L 197.430914 276.402824 
L 201.017691 274.029021 
L 204.604468 271.386432 
L 208.191245 268.502301 
L 211.778022 265.409204 
L 215.364799 262.141558 
L 218.951575 258.732683 
L 222.538352 255.212738 
L 226.125129 251.607607 
L 229.711906 247.938553 
L 233.298683 244.222433 
L 236.88546 240.472217 
L 240.472237 236.697647 
L 244.059013 232.905887 
L 247.64579 229.102122 
L 251.232567 225.290044 
L 254.819344 221.472255 
L 258.406121 217.650569 
L 261.992898 213.826239 
L 265.579675 210.000124 
L 269.166451 206.172809 
L 272.753228 202.344691 
L 276.340005 198.516038 
L 279.926782 194.687028 
L 283.513559 190.857783 
L 287.100336 187.028381 
L 290.687113 183.198876 
L 294.273889 179.369304 
L 297.860666 175.539687 
L 301.447443 171.710041 
L 305.03422 167.880375 
L 308.620997 164.050698 
L 312.207774 160.221012 
L 315.794551 156.39132 
L 319.381327 152.561625 
L 322.968104 148.731928 
L 326.554881 144.90223 
L 330.141658 141.07253 
L 333.728435 137.24283 
L 337.315212 133.41313 
L 340.901989 129.583429 
L 344.488765 125.753728 
L 348.075542 121.924027 
L 351.662319 118.094326 
L 355.249096 114.264624 
L 358.835873 110.434923 
L 362.42265 106.605222 
L 366.009427 102.775521 
L 369.596204 98.945819 
L 373.18298 95.116118 
L 376.769757 91.286417 
L 380.356534 87.456716 
L 383.943311 83.627014 
L 387.530088 79.797313 
L 391.116865 75.967612 
L 394.703642 72.137911 
L 398.290418 68.308209 
L 401.877195 64.478508 
L 405.463972 60.648807 
L 409.050749 56.819106 
L 412.637526 52.989404 
L 416.224303 49.159703 
L 419.81108 45.330002 
" clip-path="url(#p7e9db44dc9)" style="fill: none; stroke: #2ca02c; stroke-width: 1.5; stroke-linecap: square"/>
   </g>
   <g id="line2d_17">
    <path d="M 64.72017 286.92 
L 68.306947 286.919995 
L 71.893724 286.919988 
L 75.480501 286.919977 
L 79.067278 286.919959 
L 82.654055 286.919932 
L 86.240832 286.91989 
L 89.827608 286.919824 
L 93.414385 286.919723 
L 97.001162 286.919566 
L 100.587939 286.919324 
L 104.174716 286.918951 
L 107.761493 286.918378 
L 111.34827 286.917499 
L 114.935046 286.916154 
L 118.521823 286.914102 
L 122.1086 286.910979 
L 125.695377 286.906243 
L 129.282154 286.899087 
L 132.868931 286.88832 
L 136.455708 286.872194 
L 140.042485 286.848171 
L 143.629261 286.812599 
L 147.216038 286.760293 
L 150.802815 286.68399 
L 154.389592 286.573699 
L 157.976369 286.415958 
L 161.563146 286.193079 
L 165.149923 285.882521 
L 168.736699 285.456602 
L 172.323476 284.882831 
L 175.910253 284.125144 
L 179.49703 283.146231 
L 183.083807 281.91091 
L 186.670584 280.390118 
L 190.257361 278.564777 
L 193.844137 276.428596 
L 197.430914 273.989035 
L 201.017691 271.266163 
L 204.604468 268.289731 
L 208.191245 265.095256 
L 211.778022 261.720061 
L 215.364799 258.199977 
L 218.951575 254.567115 
L 222.538352 250.848717 
L 226.125129 247.066888 
L 229.711906 243.238924 
L 233.298683 239.377959 
L 236.88546 235.493719 
L 240.472237 231.593264 
L 244.059013 227.681629 
L 247.64579 223.762354 
L 251.232567 219.837898 
L 254.819344 215.909953 
L 258.406121 211.97967 
L 261.992898 208.047829 
L 265.579675 204.114956 
L 269.166451 200.181399 
L 272.753228 196.247394 
L 276.340005 192.313093 
L 279.926782 188.3786 
L 283.513559 184.44398 
L 287.100336 180.509279 
L 290.687113 176.574524 
L 294.273889 172.639734 
L 297.860666 168.704922 
L 301.447443 164.770095 
L 305.03422 160.835259 
L 308.620997 156.900417 
L 312.207774 152.965571 
L 315.794551 149.030723 
L 319.381327 145.095873 
L 322.968104 141.161022 
L 326.554881 137.226171 
L 330.141658 133.291319 
L 333.728435 129.356466 
L 337.315212 125.421614 
L 340.901989 121.486761 
L 344.488765 117.551908 
L 348.075542 113.617056 
L 351.662319 109.682203 
L 355.249096 105.74735 
L 358.835873 101.812497 
L 362.42265 97.877645 
L 366.009427 93.942792 
L 369.596204 90.007939 
L 373.18298 86.073086 
L 376.769757 82.138234 
L 380.356534 78.203381 
L 383.943311 74.268528 
L 387.530088 70.333675 
L 391.116865 66.398822 
L 394.703642 62.46397 
L 398.290418 58.529117 
L 401.877195 54.594264 
L 405.463972 50.659411 
L 409.050749 46.724558 
L 412.637526 42.789706 
L 416.224303 38.854853 
L 419.81108 34.92 
" clip-path="url(#p7e9db44dc9)" style="fill: none; stroke: #2ca02c; stroke-width: 1.5; stroke-linecap: square"/>
   </g>
   <g id="patch_3">
    <path d="M 46.965625 299.52 
L 46.965625 22.32 
" style="fill: none; stroke: #000000; stroke-width: 0.8; stroke-linejoin: miter; stroke-linecap: square"/>
   </g>
   <g id="patch_4">
    <path d="M 437.565625 299.52 
L 437.565625 22.32 
" style="fill: none; stroke: #000000; stroke-width: 0.8; stroke-linejoin: miter; stroke-linecap: square"/>
   </g>
   <g id="patch_5">
    <path d="M 46.965625 299.52 
L 437.565625 299.52 
" style="fill: none; stroke: #000000; stroke-width: 0.8; stroke-linejoin: miter; stroke-linecap: square"/>
   </g>
   <g id="patch_6">
    <path d="M 46.965625 22.32 
L 437.565625 22.32 
" style="fill: none; stroke: #000000; stroke-width: 0.8; stroke-linejoin: miter; stroke-linecap: square"/>
   </g>
   <g id="text_15">
    <!-- Transfer function $\phi_E$ -->
    <g transform="translate(182.145625 16.32) scale(0.12 -0.12)">
     <defs>
      <path id="DejaVuSans-54" d="M -19 4666 
L 3928 4666 
L 3928 4134 
L 2272 4134 
L 2272 0 
L 1638 0 
L 1638 4134 
L -19 4134 
L -19 4666 
z
" transform="scale(0.015625)"/>
      <path id="DejaVuSans-73" d="M 2834 3397 
L 2834 2853 
Q 2591 2978 2328 3040 
Q 2066 3103 1784 3103 
Q 1356 3103 1142 2972 
Q 928 2841 928 2578 
Q 928 2378 1081 2264 
Q 1234 2150 1697 2047 
L 1894 2003 
Q 2506 1872 2764 1633 
Q 3022 1394 3022 966 
Q 3022 478 2636 193 
Q 2250 -91 1575 -91 
Q 1294 -91 989 -36 
Q 684 19 347 128 
L 347 722 
Q 666 556 975 473 
Q 1284 391 1588 391 
Q 1994 391 2212 530 
Q 2431 669 2431 922 
Q 2431 1156 2273 1281 
Q 2116 1406 1581 1522 
L 1381 1569 
Q 847 1681 609 1914 
Q 372 2147 372 2553 
Q 372 3047 722 3315 
Q 1072 3584 1716 3584 
Q 2034 3584 2315 3537 
Q 2597 3491 2834 3397 
z
" transform="scale(0.015625)"/>
      <path id="DejaVuSans-66" d="M 2375 4863 
L 2375 4384 
L 1825 4384 
Q 1516 4384 1395 4259 
Q 1275 4134 1275 3809 
L 1275 3500 
L 2222 3500 
L 2222 3053 
L 1275 3053 
L 1275 0 
L 697 0 
L 697 3053 
L 147 3053 
L 147 3500 
L 697 3500 
L 697 3744 
Q 697 4328 969 4595 
Q 1241 4863 1831 4863 
L 2375 4863 
z
" transform="scale(0.015625)"/>
      <path id="DejaVuSans-6f" d="M 1959 3097 
Q 1497 3097 1228 2736 
Q 959 2375 959 1747 
Q 959 1119 1226 758 
Q 1494 397 1959 397 
Q 2419 397 2687 759 
Q 2956 1122 2956 1747 
Q 2956 2369 2687 2733 
Q 2419 3097 1959 3097 
z
M 1959 3584 
Q 2709 3584 3137 3096 
Q 3566 2609 3566 1747 
Q 3566 888 3137 398 
Q 2709 -91 1959 -91 
Q 1206 -91 779 398 
Q 353 888 353 1747 
Q 353 2609 779 3096 
Q 1206 3584 1959 3584 
z
" transform="scale(0.015625)"/>
      <path id="DejaVuSans-Oblique-3d5" d="M 2991 4863 
L 2738 3572 
Q 3363 3572 3684 3094 
Q 4016 2606 3850 1747 
Q 3681 888 3159 400 
Q 2653 -78 2028 -78 
L 1784 -1331 
L 1213 -1331 
L 1456 -78 
Q 834 -78 509 400 
Q 178 888 347 1747 
Q 513 2606 1034 3094 
Q 1544 3572 2166 3572 
L 2419 4863 
L 2991 4863 
z
M 2128 434 
Q 2481 434 2784 756 
Q 3116 1116 3244 1747 
Q 3369 2372 3169 2738 
Q 2991 3059 2638 3059 
L 2128 434 
z
M 1556 434 
L 2066 3059 
Q 1716 3059 1413 2738 
Q 1072 2372 953 1747 
Q 834 1116 1028 756 
Q 1203 434 1556 434 
z
" transform="scale(0.015625)"/>
      <path id="DejaVuSans-Oblique-45" d="M 1081 4666 
L 4031 4666 
L 3928 4134 
L 1606 4134 
L 1338 2753 
L 3566 2753 
L 3463 2222 
L 1234 2222 
L 909 531 
L 3284 531 
L 3181 0 
L 172 0 
L 1081 4666 
z
" transform="scale(0.015625)"/>
     </defs>
     <use xlink:href="#DejaVuSans-54" transform="translate(0 0.015625)"/>
     <use xlink:href="#DejaVuSans-72" transform="translate(61.083984 0.015625)"/>
     <use xlink:href="#DejaVuSans-61" transform="translate(102.197266 0.015625)"/>
     <use xlink:href="#DejaVuSans-6e" transform="translate(163.476562 0.015625)"/>
     <use xlink:href="#DejaVuSans-73" transform="translate(226.855469 0.015625)"/>
     <use xlink:href="#DejaVuSans-66" transform="translate(278.955078 0.015625)"/>
     <use xlink:href="#DejaVuSans-65" transform="translate(314.160156 0.015625)"/>
     <use xlink:href="#DejaVuSans-72" transform="translate(375.683594 0.015625)"/>
     <use xlink:href="#DejaVuSans-20" transform="translate(416.796875 0.015625)"/>
     <use xlink:href="#DejaVuSans-66" transform="translate(448.583984 0.015625)"/>
     <use xlink:href="#DejaVuSans-75" transform="translate(483.789062 0.015625)"/>
     <use xlink:href="#DejaVuSans-6e" transform="translate(547.167969 0.015625)"/>
     <use xlink:href="#DejaVuSans-63" transform="translate(610.546875 0.015625)"/>
     <use xlink:href="#DejaVuSans-74" transform="translate(665.527344 0.015625)"/>
     <use xlink:href="#DejaVuSans-69" transform="translate(704.736328 0.015625)"/>
     <use xlink:href="#DejaVuSans-6f" transform="translate(732.519531 0.015625)"/>
     <use xlink:href="#DejaVuSans-6e" transform="translate(793.701172 0.015625)"/>
     <use xlink:href="#DejaVuSans-20" transform="translate(857.080078 0.015625)"/>
     <use xlink:href="#DejaVuSans-Oblique-3d5" transform="translate(888.867188 0.015625)"/>
     <use xlink:href="#DejaVuSans-Oblique-45" transform="translate(954.833984 -16.390625) scale(0.7)"/>
    </g>
   </g>
  </g>
 </g>
 <defs>
  <clipPath id="p7e9db44dc9">
   <rect x="46.965625" y="22.32" width="390.6" height="277.2"/>
  </clipPath>
 </defs>
</svg>
