<?xml version="1.0" encoding="utf-8" standalone="no"?>
<!DOCTYPE svg PUBLIC "-//W3C//DTD SVG 1.1//EN"
  "http://www.w3.org/Graphics/SVG/1.1/DTD/svg11.dtd">
<svg xmlns:xlink="http://www.w3.org/1999/xlink" width="438.403125pt" height="337.07625pt" viewBox="0 0 438.403125 337.07625" xmlns="http://www.w3.org/2000/svg" version="1.1">
 <metadata>
  <rdf:RDF xmlns:dc="http://purl.org/dc/elements/1.1/" xmlns:cc="http://creativecommons.org/ns#" xmlns:rdf="http://www.w3.org/1999/02/22-rdf-syntax-ns#">
   <cc:Work>
    <dc:type rdf:resource="http://purl.org/dc/dcmitype/StillImage"/>
    <dc:date>2026-06-29T10:45:29.255635</dc:date>
    <dc:format>image/svg+xml</dc:format>
    <dc:creator>
     <cc:Agent>
      <dc:title>Matplotlib v3.9.2, https://matplotlib.org/</dc:title>
     </cc:Agent>
    </dc:creator>
   </cc:Work>
  </rdf:RDF>
 </metadata>
 <defs>
  <style type="text/css">*{stroke-linejoin: round; stroke-linecap: butt}</style>
 </defs>
 <g id="figure_1">
  <g id="patch_1">
   <path d="M 0 337.07625 
L 438.403125 337.07625 
L 438.403125 0 
L 0 0 
z
" style="fill: #ffffff"/>
  </g>
  <g id="axes_1">
   <g id="patch_2">
    <path d="M 40.603125 299.52 
L 431.203125 299.52 
L 431.203125 22.32 
L 40.603125 22.32 
z
" style="fill: #ffffff"/>
   </g>
   <g id="matplotlib.axis_1">
    <g id="xtick_1">
     <g id="line2d_1">
      <defs>
       <path id="m5276277d2c" d="M 0 0 
L 0 3.5 
" style="stroke: #000000; stroke-width: 0.8"/>
      </defs>
      <g>
       <use xlink:href="#m5276277d2c" x="58.35767" y="299.52" style="stroke: #000000; stroke-width: 0.8"/>
      </g>
     </g>
     <g id="text_1">
      <!-- 0.0 -->
      <g transform="translate(50.406108 314.118438) scale(0.1 -0.1)">
       <defs>
        <path id="DejaVuSans-30" d="M 2034 4250 
Q 1547 4250 1301 3770 
Q 1056 3291 1056 2328 
Q 1056 1369 1301 889 
Q 1547 409 2034 409 
Q 2525 409 2770 889 
Q 3016 1369 3016 2328 
Q 3016 3291 2770 3770 
Q 2525 4250 2034 4250 
z
M 2034 4750 
Q 2819 4750 3233 4129 
Q 3647 3509 3647 2328 
Q 3647 1150 3233 529 
Q 2819 -91 2034 -91 
Q 1250 -91 836 529 
Q 422 1150 422 2328 
Q 422 3509 836 4129 
Q 1250 4750 2034 4750 
z
" transform="scale(0.015625)"/>
        <path id="DejaVuSans-2e" d="M 684 794 
L 1344 794 
L 1344 0 
L 684 0 
L 684 794 
z
" transform="scale(0.015625)"/>
       </defs>
       <use xlink:href="#DejaVuSans-30"/>
       <use xlink:href="#DejaVuSans-2e" x="63.623047"/>
       <use xlink:href="#DejaVuSans-30" x="95.410156"/>
      </g>
     </g>
    </g>
    <g id="xtick_2">
     <g id="line2d_2">
      <g>
       <use xlink:href="#m5276277d2c" x="129.375852" y="299.52" style="stroke: #000000; stroke-width: 0.8"/>
      </g>
     </g>
     <g id="text_2">
      <!-- 0.2 -->
      <g transform="translate(121.42429 314.118438) scale(0.1 -0.1)">
       <defs>
        <path id="DejaVuSans-32" d="M 1228 531 
L 3431 531 
L 3431 0 
L 469 0 
L 469 531 
Q 828 903 1448 1529 
Q 2069 2156 2228 2338 
Q 2531 2678 2651 2914 
Q 2772 3150 2772 3378 
Q 2772 3750 2511 3984 
Q 2250 4219 1831 4219 
Q 1534 4219 1204 4116 
Q 875 4013 500 3803 
L 500 4441 
Q 881 4594 1212 4672 
Q 1544 4750 1819 4750 
Q 2544 4750 2975 4387 
Q 3406 4025 3406 3419 
Q 3406 3131 3298 2873 
Q 3191 2616 2906 2266 
Q 2828 2175 2409 1742 
Q 1991 1309 1228 531 
z
" transform="scale(0.015625)"/>
       </defs>
       <use xlink:href="#DejaVuSans-30"/>
       <use xlink:href="#DejaVuSans-2e" x="63.623047"/>
       <use xlink:href="#DejaVuSans-32" x="95.410156"/>
      </g>
     </g>
    </g>
    <g id="xtick_3">
     <g id="line2d_3">
      <g>
       <use xlink:href="#m5276277d2c" x="200.394034" y="299.52" style="stroke: #000000; stroke-width: 0.8"/>
      </g>
     </g>
     <g id="text_3">
      <!-- 0.4 -->
      <g transform="translate(192.442472 314.118438) scale(0.1 -0.1)">
       <defs>
        <path id="DejaVuSans-34" d="M 2419 4116 
L 825 1625 
L 2419 1625 
L 2419 4116 
z
M 2253 4666 
L 3047 4666 
L 3047 1625 
L 3713 1625 
L 3713 1100 
L 3047 1100 
L 3047 0 
L 2419 0 
L 2419 1100 
L 313 1100 
L 313 1709 
L 2253 4666 
z
" transform="scale(0.015625)"/>
       </defs>
       <use xlink:href="#DejaVuSans-30"/>
       <use xlink:href="#DejaVuSans-2e" x="63.623047"/>
       <use xlink:href="#DejaVuSans-34" x="95.410156"/>
      </g>
     </g>
    </g>
    <g id="xtick_4">
     <g id="line2d_4">
      <g>
       <use xlink:href="#m5276277d2c" x="271.412216" y="299.52" style="stroke: #000000; stroke-width: 0.8"/>
      </g>
     </g>
     <g id="text_4">
      <!-- 0.6 -->
      <g transform="translate(263.460653 314.118438) scale(0.1 -0.1)">
       <defs>
        <path id="DejaVuSans-36" d="M 2113 2584 
Q 1688 2584 1439 2293 
Q 1191 2003 1191 1497 
Q 1191 994 1439 701 
Q 1688 409 2113 409 
Q 2538 409 2786 701 
Q 3034 994 3034 1497 
Q 3034 2003 2786 2293 
Q 2538 2584 2113 2584 
z
M 3366 4563 
L 3366 3988 
Q 3128 4100 2886 4159 
Q 2644 4219 2406 4219 
Q 1781 4219 1451 3797 
Q 1122 3375 1075 2522 
Q 1259 2794 1537 2939 
Q 1816 3084 2150 3084 
Q 2853 3084 3261 2657 
Q 3669 2231 3669 1497 
Q 3669 778 3244 343 
Q 2819 -91 2113 -91 
Q 1303 -91 875 529 
Q 447 1150 447 2328 
Q 447 3434 972 4092 
Q 1497 4750 2381 4750 
Q 2619 4750 2861 4703 
Q 3103 4656 3366 4563 
z
" transform="scale(0.015625)"/>
       </defs>
       <use xlink:href="#DejaVuSans-30"/>
       <use xlink:href="#DejaVuSans-2e" x="63.623047"/>
       <use xlink:href="#DejaVuSans-36" x="95.410156"/>
      </g>
     </g>
    </g>
    <g id="xtick_5">
     <g id="line2d_5">
      <g>
       <use xlink:href="#m5276277d2c" x="342.430398" y="299.52" style="stroke: #000000; stroke-width: 0.8"/>
      </g>
     </g>
     <g id="text_5">
      <!-- 0.8 -->
      <g transform="translate(334.478835 314.118438) scale(0.1 -0.1)">
       <defs>
        <path id="DejaVuSans-38" d="M 2034 2216 
Q 1584 2216 1326 1975 
Q 1069 1734 1069 1313 
Q 1069 891 1326 650 
Q 1584 409 2034 409 
Q 2484 409 2743 651 
Q 3003 894 3003 1313 
Q 3003 1734 2745 1975 
Q 2488 2216 2034 2216 
z
M 1403 2484 
Q 997 2584 770 2862 
Q 544 3141 544 3541 
Q 544 4100 942 4425 
Q 1341 4750 2034 4750 
Q 2731 4750 3128 4425 
Q 3525 4100 3525 3541 
Q 3525 3141 3298 2862 
Q 3072 2584 2669 2484 
Q 3125 2378 3379 2068 
Q 3634 1759 3634 1313 
Q 3634 634 3220 271 
Q 2806 -91 2034 -91 
Q 1263 -91 848 271 
Q 434 634 434 1313 
Q 434 1759 690 2068 
Q 947 2378 1403 2484 
z
M 1172 3481 
Q 1172 3119 1398 2916 
Q 1625 2713 2034 2713 
Q 2441 2713 2670 2916 
Q 2900 3119 2900 3481 
Q 2900 3844 2670 4047 
Q 2441 4250 2034 4250 
Q 1625 4250 1398 4047 
Q 1172 3844 1172 3481 
z
" transform="scale(0.015625)"/>
       </defs>
       <use xlink:href="#DejaVuSans-30"/>
       <use xlink:href="#DejaVuSans-2e" x="63.623047"/>
       <use xlink:href="#DejaVuSans-38" x="95.410156"/>
      </g>
     </g>
    </g>
    <g id="xtick_6">
     <g id="line2d_6">
      <g>
       <use xlink:href="#m5276277d2c" x="413.44858" y="299.52" style="stroke: #000000; stroke-width: 0.8"/>
      </g>
     </g>
     <g id="text_6">
      <!-- 1.0 -->
      <g transform="translate(405.497017 314.118438) scale(0.1 -0.1)">
       <defs>
        <path id="DejaVuSans-31" d="M 794 531 
L 1825 531 
L 1825 4091 
L 703 3866 
L 703 4441 
L 1819 4666 
L 2450 4666 
L 2450 531 
L 3481 531 
L 3481 0 
L 794 0 
L 794 531 
z
" transform="scale(0.015625)"/>
       </defs>
       <use xlink:href="#DejaVuSans-31"/>
       <use xlink:href="#DejaVuSans-2e" x="63.623047"/>
       <use xlink:href="#DejaVuSans-30" x="95.410156"/>
      </g>
     </g>
    </g>
    <g id="text_7">
     <!-- Input current I (nA) -->
     <g transform="translate(188.189063 327.796562) scale(0.1 -0.1)">
      <defs>
       <path id="DejaVuSans-49" d="M 628 4666 
L 1259 4666 
L 1259 0 
L 628 0 
L 628 4666 
z
" transform="scale(0.015625)"/>
       <path id="DejaVuSans-6e" d="M 3513 2113 
L 3513 0 
L 2938 0 
L 2938 2094 
Q 2938 2591 2744 2837 
Q 2550 3084 2163 3084 
Q 1697 3084 1428 2787 
Q 1159 2491 1159 1978 
L 1159 0 
L 581 0 
L 581 3500 
L 1159 3500 
L 1159 2956 
Q 1366 3272 1645 3428 
Q 1925 3584 2291 3584 
Q 2894 3584 3203 3211 
Q 3513 2838 3513 2113 
z
" transform="scale(0.015625)"/>
       <path id="DejaVuSans-70" d="M 1159 525 
L 1159 -1331 
L 581 -1331 
L 581 3500 
L 1159 3500 
L 1159 2969 
Q 1341 3281 1617 3432 
Q 1894 3584 2278 3584 
Q 2916 3584 3314 3078 
Q 3713 2572 3713 1747 
Q 3713 922 3314 415 
Q 2916 -91 2278 -91 
Q 1894 -91 1617 61 
Q 1341 213 1159 525 
z
M 3116 1747 
Q 3116 2381 2855 2742 
Q 2594 3103 2138 3103 
Q 1681 3103 1420 2742 
Q 1159 2381 1159 1747 
Q 1159 1113 1420 752 
Q 1681 391 2138 391 
Q 2594 391 2855 752 
Q 3116 1113 3116 1747 
z
" transform="scale(0.015625)"/>
       <path id="DejaVuSans-75" d="M 544 1381 
L 544 3500 
L 1119 3500 
L 1119 1403 
Q 1119 906 1312 657 
Q 1506 409 1894 409 
Q 2359 409 2629 706 
Q 2900 1003 2900 1516 
L 2900 3500 
L 3475 3500 
L 3475 0 
L 2900 0 
L 2900 538 
Q 2691 219 2414 64 
Q 2138 -91 1772 -91 
Q 1169 -91 856 284 
Q 544 659 544 1381 
z
M 1991 3584 
L 1991 3584 
z
" transform="scale(0.015625)"/>
       <path id="DejaVuSans-74" d="M 1172 4494 
L 1172 3500 
L 2356 3500 
L 2356 3053 
L 1172 3053 
L 1172 1153 
Q 1172 725 1289 603 
Q 1406 481 1766 481 
L 2356 481 
L 2356 0 
L 1766 0 
Q 1100 0 847 248 
Q 594 497 594 1153 
L 594 3053 
L 172 3053 
L 172 3500 
L 594 3500 
L 594 4494 
L 1172 4494 
z
" transform="scale(0.015625)"/>
       <path id="DejaVuSans-20" transform="scale(0.015625)"/>
       <path id="DejaVuSans-63" d="M 3122 3366 
L 3122 2828 
Q 2878 2963 2633 3030 
Q 2388 3097 2138 3097 
Q 1578 3097 1268 2742 
Q 959 2388 959 1747 
Q 959 1106 1268 751 
Q 1578 397 2138 397 
Q 2388 397 2633 464 
Q 2878 531 3122 666 
L 3122 134 
Q 2881 22 2623 -34 
Q 2366 -91 2075 -91 
Q 1284 -91 818 406 
Q 353 903 353 1747 
Q 353 2603 823 3093 
Q 1294 3584 2113 3584 
Q 2378 3584 2631 3529 
Q 2884 3475 3122 3366 
z
" transform="scale(0.015625)"/>
       <path id="DejaVuSans-72" d="M 2631 2963 
Q 2534 3019 2420 3045 
Q 2306 3072 2169 3072 
Q 1681 3072 1420 2755 
Q 1159 2438 1159 1844 
L 1159 0 
L 581 0 
L 581 3500 
L 1159 3500 
L 1159 2956 
Q 1341 3275 1631 3429 
Q 1922 3584 2338 3584 
Q 2397 3584 2469 3576 
Q 2541 3569 2628 3553 
L 2631 2963 
z
" transform="scale(0.015625)"/>
       <path id="DejaVuSans-65" d="M 3597 1894 
L 3597 1613 
L 953 1613 
Q 991 1019 1311 708 
Q 1631 397 2203 397 
Q 2534 397 2845 478 
Q 3156 559 3463 722 
L 3463 178 
Q 3153 47 2828 -22 
Q 2503 -91 2169 -91 
Q 1331 -91 842 396 
Q 353 884 353 1716 
Q 353 2575 817 3079 
Q 1281 3584 2069 3584 
Q 2775 3584 3186 3129 
Q 3597 2675 3597 1894 
z
M 3022 2063 
Q 3016 2534 2758 2815 
Q 2500 3097 2075 3097 
Q 1594 3097 1305 2825 
Q 1016 2553 972 2059 
L 3022 2063 
z
" transform="scale(0.015625)"/>
       <path id="DejaVuSans-28" d="M 1984 4856 
Q 1566 4138 1362 3434 
Q 1159 2731 1159 2009 
Q 1159 1288 1364 580 
Q 1569 -128 1984 -844 
L 1484 -844 
Q 1016 -109 783 600 
Q 550 1309 550 2009 
Q 550 2706 781 3412 
Q 1013 4119 1484 4856 
L 1984 4856 
z
" transform="scale(0.015625)"/>
       <path id="DejaVuSans-41" d="M 2188 4044 
L 1331 1722 
L 3047 1722 
L 2188 4044 
z
M 1831 4666 
L 2547 4666 
L 4325 0 
L 3669 0 
L 3244 1197 
L 1141 1197 
L 716 0 
L 50 0 
L 1831 4666 
z
" transform="scale(0.015625)"/>
       <path id="DejaVuSans-29" d="M 513 4856 
L 1013 4856 
Q 1481 4119 1714 3412 
Q 1947 2706 1947 2009 
Q 1947 1309 1714 600 
Q 1481 -109 1013 -844 
L 513 -844 
Q 928 -128 1133 580 
Q 1338 1288 1338 2009 
Q 1338 2731 1133 3434 
Q 928 4138 513 4856 
z
" transform="scale(0.015625)"/>
      </defs>
      <use xlink:href="#DejaVuSans-49"/>
      <use xlink:href="#DejaVuSans-6e" x="29.492188"/>
      <use xlink:href="#DejaVuSans-70" x="92.871094"/>
      <use xlink:href="#DejaVuSans-75" x="156.347656"/>
      <use xlink:href="#DejaVuSans-74" x="219.726562"/>
      <use xlink:href="#DejaVuSans-20" x="258.935547"/>
      <use xlink:href="#DejaVuSans-63" x="290.722656"/>
      <use xlink:href="#DejaVuSans-75" x="345.703125"/>
      <use xlink:href="#DejaVuSans-72" x="409.082031"/>
      <use xlink:href="#DejaVuSans-72" x="448.445312"/>
      <use xlink:href="#DejaVuSans-65" x="487.308594"/>
      <use xlink:href="#DejaVuSans-6e" x="548.832031"/>
      <use xlink:href="#DejaVuSans-74" x="612.210938"/>
      <use xlink:href="#DejaVuSans-20" x="651.419922"/>
      <use xlink:href="#DejaVuSans-49" x="683.207031"/>
      <use xlink:href="#DejaVuSans-20" x="712.699219"/>
      <use xlink:href="#DejaVuSans-28" x="744.486328"/>
      <use xlink:href="#DejaVuSans-6e" x="783.5"/>
      <use xlink:href="#DejaVuSans-41" x="846.878906"/>
      <use xlink:href="#DejaVuSans-29" x="915.287109"/>
     </g>
    </g>
   </g>
   <g id="matplotlib.axis_2">
    <g id="ytick_1">
     <g id="line2d_7">
      <defs>
       <path id="me719ae84cb" d="M 0 0 
L -3.5 0 
" style="stroke: #000000; stroke-width: 0.8"/>
      </defs>
      <g>
       <use xlink:href="#me719ae84cb" x="40.603125" y="286.920009" style="stroke: #000000; stroke-width: 0.8"/>
      </g>
     </g>
     <g id="text_8">
      <!-- 0 -->
      <g transform="translate(27.240625 290.719228) scale(0.1 -0.1)">
       <use xlink:href="#DejaVuSans-30"/>
      </g>
     </g>
    </g>
    <g id="ytick_2">
     <g id="line2d_8">
      <g>
       <use xlink:href="#me719ae84cb" x="40.603125" y="232.599126" style="stroke: #000000; stroke-width: 0.8"/>
      </g>
     </g>
     <g id="text_9">
      <!-- 20 -->
      <g transform="translate(20.878125 236.398344) scale(0.1 -0.1)">
       <use xlink:href="#DejaVuSans-32"/>
       <use xlink:href="#DejaVuSans-30" x="63.623047"/>
      </g>
     </g>
    </g>
    <g id="ytick_3">
     <g id="line2d_9">
      <g>
       <use xlink:href="#me719ae84cb" x="40.603125" y="178.278243" style="stroke: #000000; stroke-width: 0.8"/>
      </g>
     </g>
     <g id="text_10">
      <!-- 40 -->
      <g transform="translate(20.878125 182.077461) scale(0.1 -0.1)">
       <use xlink:href="#DejaVuSans-34"/>
       <use xlink:href="#DejaVuSans-30" x="63.623047"/>
      </g>
     </g>
    </g>
    <g id="ytick_4">
     <g id="line2d_10">
      <g>
       <use xlink:href="#me719ae84cb" x="40.603125" y="123.957359" style="stroke: #000000; stroke-width: 0.8"/>
      </g>
     </g>
     <g id="text_11">
      <!-- 60 -->
      <g transform="translate(20.878125 127.756578) scale(0.1 -0.1)">
       <use xlink:href="#DejaVuSans-36"/>
       <use xlink:href="#DejaVuSans-30" x="63.623047"/>
      </g>
     </g>
    </g>
    <g id="ytick_5">
     <g id="line2d_11">
      <g>
       <use xlink:href="#me719ae84cb" x="40.603125" y="69.636476" style="stroke: #000000; stroke-width: 0.8"/>
      </g>
     </g>
     <g id="text_12">
      <!-- 80 -->
      <g transform="translate(20.878125 73.435695) scale(0.1 -0.1)">
       <use xlink:href="#DejaVuSans-38"/>
       <use xlink:href="#DejaVuSans-30" x="63.623047"/>
      </g>
     </g>
    </g>
    <g id="text_13">
     <!-- Firing rate (Hz) -->
     <g transform="translate(14.798438 198.230156) rotate(-90) scale(0.1 -0.1)">
      <defs>
       <path id="DejaVuSans-46" d="M 628 4666 
L 3309 4666 
L 3309 4134 
L 1259 4134 
L 1259 2759 
L 3109 2759 
L 3109 2228 
L 1259 2228 
L 1259 0 
L 628 0 
L 628 4666 
z
" transform="scale(0.015625)"/>
       <path id="DejaVuSans-69" d="M 603 3500 
L 1178 3500 
L 1178 0 
L 603 0 
L 603 3500 
z
M 603 4863 
L 1178 4863 
L 1178 4134 
L 603 4134 
L 603 4863 
z
" transform="scale(0.015625)"/>
       <path id="DejaVuSans-67" d="M 2906 1791 
Q 2906 2416 2648 2759 
Q 2391 3103 1925 3103 
Q 1463 3103 1205 2759 
Q 947 2416 947 1791 
Q 947 1169 1205 825 
Q 1463 481 1925 481 
Q 2391 481 2648 825 
Q 2906 1169 2906 1791 
z
M 3481 434 
Q 3481 -459 3084 -895 
Q 2688 -1331 1869 -1331 
Q 1566 -1331 1297 -1286 
Q 1028 -1241 775 -1147 
L 775 -588 
Q 1028 -725 1275 -790 
Q 1522 -856 1778 -856 
Q 2344 -856 2625 -561 
Q 2906 -266 2906 331 
L 2906 616 
Q 2728 306 2450 153 
Q 2172 0 1784 0 
Q 1141 0 747 490 
Q 353 981 353 1791 
Q 353 2603 747 3093 
Q 1141 3584 1784 3584 
Q 2172 3584 2450 3431 
Q 2728 3278 2906 2969 
L 2906 3500 
L 3481 3500 
L 3481 434 
z
" transform="scale(0.015625)"/>
       <path id="DejaVuSans-61" d="M 2194 1759 
Q 1497 1759 1228 1600 
Q 959 1441 959 1056 
Q 959 750 1161 570 
Q 1363 391 1709 391 
Q 2188 391 2477 730 
Q 2766 1069 2766 1631 
L 2766 1759 
L 2194 1759 
z
M 3341 1997 
L 3341 0 
L 2766 0 
L 2766 531 
Q 2569 213 2275 61 
Q 1981 -91 1556 -91 
Q 1019 -91 701 211 
Q 384 513 384 1019 
Q 384 1609 779 1909 
Q 1175 2209 1959 2209 
L 2766 2209 
L 2766 2266 
Q 2766 2663 2505 2880 
Q 2244 3097 1772 3097 
Q 1472 3097 1187 3025 
Q 903 2953 641 2809 
L 641 3341 
Q 956 3463 1253 3523 
Q 1550 3584 1831 3584 
Q 2591 3584 2966 3190 
Q 3341 2797 3341 1997 
z
" transform="scale(0.015625)"/>
       <path id="DejaVuSans-48" d="M 628 4666 
L 1259 4666 
L 1259 2753 
L 3553 2753 
L 3553 4666 
L 4184 4666 
L 4184 0 
L 3553 0 
L 3553 2222 
L 1259 2222 
L 1259 0 
L 628 0 
L 628 4666 
z
" transform="scale(0.015625)"/>
       <path id="DejaVuSans-7a" d="M 353 3500 
L 3084 3500 
L 3084 2975 
L 922 459 
L 3084 459 
L 3084 0 
L 275 0 
L 275 525 
L 2438 3041 
L 353 3041 
L 353 3500 
z
" transform="scale(0.015625)"/>
      </defs>
      <use xlink:href="#DejaVuSans-46"/>
      <use xlink:href="#DejaVuSans-69" x="50.269531"/>
      <use xlink:href="#DejaVuSans-72" x="78.052734"/>
      <use xlink:href="#DejaVuSans-69" x="119.166016"/>
      <use xlink:href="#DejaVuSans-6e" x="146.949219"/>
      <use xlink:href="#DejaVuSans-67" x="210.328125"/>
      <use xlink:href="#DejaVuSans-20" x="273.804688"/>
      <use xlink:href="#DejaVuSans-72" x="305.591797"/>
      <use xlink:href="#DejaVuSans-61" x="346.705078"/>
      <use xlink:href="#DejaVuSans-74" x="407.984375"/>
      <use xlink:href="#DejaVuSans-65" x="447.193359"/>
      <use xlink:href="#DejaVuSans-20" x="508.716797"/>
      <use xlink:href="#DejaVuSans-28" x="540.503906"/>
      <use xlink:href="#DejaVuSans-48" x="579.517578"/>
      <use xlink:href="#DejaVuSans-7a" x="654.712891"/>
      <use xlink:href="#DejaVuSans-29" x="707.203125"/>
     </g>
    </g>
   </g>
   <g id="line2d_12">
    <path d="M 58.35767 286.92 
L 61.944447 286.919996 
L 65.531224 286.919989 
L 69.118001 286.91998 
L 72.704778 286.919966 
L 76.291555 286.919946 
L 79.878332 286.919915 
L 83.465108 286.919871 
L 87.051885 286.919805 
L 90.638662 286.919708 
L 94.225439 286.919565 
L 97.812216 286.919356 
L 101.398993 286.919048 
L 104.98577 286.918598 
L 108.572546 286.917939 
L 112.159323 286.916978 
L 115.7461 286.915577 
L 119.332877 286.913541 
L 122.919654 286.910589 
L 126.506431 286.906318 
L 130.093208 286.900159 
L 133.679985 286.891302 
L 137.266761 286.878612 
L 140.853538 286.860502 
L 144.440315 286.83477 
L 148.027092 286.798389 
L 151.613869 286.747242 
L 155.200646 286.675787 
L 158.787423 286.576677 
L 162.374199 286.440321 
L 165.960976 286.254444 
L 169.547753 286.003684 
L 173.13453 285.669329 
L 176.721307 285.229313 
L 180.308084 284.658594 
L 183.894861 283.930053 
L 187.481637 283.015971 
L 191.068414 281.890038 
L 194.655191 280.529686 
L 198.241968 278.918418 
L 201.828745 277.047681 
L 205.415522 274.917898 
L 209.002299 272.538412 
L 212.589075 269.926369 
L 216.175852 267.104781 
L 219.762629 264.100184 
L 223.349406 260.940319 
L 226.936183 257.652166 
L 230.52296 254.26052 
L 234.109737 250.78715 
L 237.696513 247.250451 
L 241.28329 243.665487 
L 244.870067 240.044268 
L 248.456844 236.396158 
L 252.043621 232.728322 
L 255.630398 229.046152 
L 259.217175 225.353655 
L 262.803951 221.65377 
L 266.390728 217.948633 
L 269.977505 214.239786 
L 273.564282 210.528327 
L 277.151059 206.815042 
L 280.737836 203.100481 
L 284.324613 199.385034 
L 287.911389 195.668973 
L 291.498166 191.952487 
L 295.084943 188.235709 
L 298.67172 184.51873 
L 302.258497 180.801613 
L 305.845274 177.084401 
L 309.432051 173.367125 
L 313.018827 169.649805 
L 316.605604 165.932454 
L 320.192381 162.215083 
L 323.779158 158.497699 
L 327.365935 154.780304 
L 330.952712 151.062904 
L 334.539489 147.345499 
L 338.126265 143.628091 
L 341.713042 139.910681 
L 345.299819 136.19327 
L 348.886596 132.475858 
L 352.473373 128.758445 
L 356.06015 125.041032 
L 359.646927 121.323619 
L 363.233704 117.606205 
L 366.82048 113.888791 
L 370.407257 110.171377 
L 373.994034 106.453964 
L 377.580811 102.73655 
L 381.167588 99.019136 
L 384.754365 95.301722 
L 388.341142 91.584308 
L 391.927918 87.866894 
L 395.514695 84.14948 
L 399.101472 80.432066 
L 402.688249 76.714652 
L 406.275026 72.997238 
L 409.861803 69.279824 
L 413.44858 65.56241 
" clip-path="url(#p63174d11bb)" style="fill: none; stroke: #ff7f0e; stroke-width: 1.5; stroke-linecap: square"/>
   </g>
   <g id="line2d_13">
    <path d="M 58.35767 286.92 
L 61.944447 286.919996 
L 65.531224 286.919989 
L 69.118001 286.919979 
L 72.704778 286.919965 
L 76.291555 286.919943 
L 79.878332 286.919911 
L 83.465108 286.919863 
L 87.051885 286.919792 
L 90.638662 286.919686 
L 94.225439 286.919529 
L 97.812216 286.919297 
L 101.398993 286.918955 
L 104.98577 286.918449 
L 108.572546 286.917704 
L 112.159323 286.916609 
L 115.7461 286.915003 
L 119.332877 286.912653 
L 122.919654 286.909222 
L 126.506431 286.904227 
L 130.093208 286.896978 
L 133.679985 286.886493 
L 137.266761 286.871387 
L 140.853538 286.849716 
L 144.440315 286.818776 
L 148.027092 286.774846 
L 151.613869 286.712855 
L 155.200646 286.625992 
L 158.787423 286.505247 
L 162.374199 286.338917 
L 165.960976 286.11214 
L 169.547753 285.806518 
L 173.13453 285.399987 
L 176.721307 284.867045 
L 180.308084 284.179531 
L 183.894861 283.308032 
L 187.481637 282.223917 
L 191.068414 280.901845 
L 194.655191 279.322375 
L 198.241968 277.474217 
L 201.828745 275.355625 
L 205.415522 272.974625 
L 209.002299 270.347999 
L 212.589075 267.499297 
L 216.175852 264.456287 
L 219.762629 261.248369 
L 223.349406 257.904343 
L 226.936183 254.450766 
L 230.52296 250.910969 
L 234.109737 247.304645 
L 237.696513 243.647872 
L 241.28329 239.953418 
L 244.870067 236.231185 
L 248.456844 232.488708 
L 252.043621 228.731622 
L 255.630398 224.964086 
L 259.217175 221.189128 
L 262.803951 217.408936 
L 266.390728 213.625072 
L 269.977505 209.838646 
L 273.564282 206.050439 
L 277.151059 202.261001 
L 280.737836 198.470713 
L 284.324613 194.679841 
L 287.911389 190.888569 
L 291.498166 187.097023 
L 295.084943 183.305291 
L 298.67172 179.513432 
L 302.258497 175.721486 
L 305.845274 171.929482 
L 309.432051 168.137439 
L 313.018827 164.345368 
L 316.605604 160.55328 
L 320.192381 156.761179 
L 323.779158 152.969071 
L 327.365935 149.176956 
L 330.952712 145.384838 
L 334.539489 141.592718 
L 338.126265 137.800596 
L 341.713042 134.008472 
L 345.299819 130.216348 
L 348.886596 126.424224 
L 352.473373 122.632099 
L 356.06015 118.839974 
L 359.646927 115.047849 
L 363.233704 111.255723 
L 366.82048 107.463598 
L 370.407257 103.671472 
L 373.994034 99.879347 
L 377.580811 96.087221 
L 381.167588 92.295096 
L 384.754365 88.50297 
L 388.341142 84.710845 
L 391.927918 80.918719 
L 395.514695 77.126594 
L 399.101472 73.334468 
L 402.688249 69.542343 
L 406.275026 65.750217 
L 409.861803 61.958092 
L 413.44858 58.165966 
" clip-path="url(#p63174d11bb)" style="fill: none; stroke: #ff7f0e; stroke-width: 1.5; stroke-linecap: square"/>
   </g>
   <g id="line2d_14">
    <path d="M 58.35767 286.92 
L 61.944447 286.919996 
L 65.531224 286.919989 
L 69.118001 286.919979 
L 72.704778 286.919963 
L 76.291555 286.919941 
L 79.878332 286.919906 
L 83.465108 286.919855 
L 87.051885 286.919778 
L 90.638662 286.919662 
L 94.225439 286.91949 
L 97.812216 286.919234 
L 101.398993 286.918852 
L 104.98577 286.918285 
L 108.572546 286.917443 
L 112.159323 286.916197 
L 115.7461 286.914356 
L 119.332877 286.911645 
L 122.919654 286.90766 
L 126.506431 286.901823 
L 130.093208 286.893299 
L 133.679985 286.8809 
L 137.266761 286.862939 
L 140.853538 286.837041 
L 144.440315 286.799898 
L 148.027092 286.746947 
L 151.613869 286.671977 
L 155.200646 286.566655 
L 158.787423 286.420001 
L 162.374199 286.217846 
L 165.960976 285.942362 
L 169.547753 285.57178 
L 173.13453 285.080454 
L 176.721307 284.439465 
L 180.308084 283.617897 
L 183.894861 282.584846 
L 187.481637 281.312033 
L 191.068414 279.776702 
L 194.655191 277.964265 
L 198.241968 275.870155 
L 201.828745 273.500425 
L 205.415522 270.870953 
L 209.002299 268.005451 
L 212.589075 264.932742 
L 216.175852 261.683879 
L 219.762629 258.289602 
L 223.349406 254.778428 
L 226.936183 251.175474 
L 230.52296 247.50195 
L 234.109737 243.775141 
L 237.696513 240.008734 
L 241.28329 236.213302 
L 244.870067 232.396845 
L 248.456844 228.565317 
L 252.043621 224.723079 
L 255.630398 220.873291 
L 259.217175 217.018216 
L 262.803951 213.15946 
L 266.390728 209.298154 
L 269.977505 205.435091 
L 273.564282 201.570822 
L 277.151059 197.705727 
L 280.737836 193.840068 
L 284.324613 189.974028 
L 287.911389 186.107727 
L 291.498166 182.241251 
L 295.084943 178.374656 
L 298.67172 174.507982 
L 302.258497 170.641254 
L 305.845274 166.774489 
L 309.432051 162.907701 
L 313.018827 159.040896 
L 316.605604 155.174081 
L 320.192381 151.307258 
L 323.779158 147.440431 
L 327.365935 143.5736 
L 330.952712 139.706767 
L 334.539489 135.839933 
L 338.126265 131.973097 
L 341.713042 128.106262 
L 345.299819 124.239425 
L 348.886596 120.372589 
L 352.473373 116.505752 
L 356.06015 112.638915 
L 359.646927 108.772078 
L 363.233704 104.905241 
L 366.82048 101.038404 
L 370.407257 97.171567 
L 373.994034 93.30473 
L 377.580811 89.437893 
L 381.167588 85.571056 
L 384.754365 81.704219 
L 388.341142 77.837382 
L 391.927918 73.970545 
L 395.514695 70.103708 
L 399.101472 66.236871 
L 402.688249 62.370034 
L 406.275026 58.503197 
L 409.861803 54.63636 
L 413.44858 50.769522 
" clip-path="url(#p63174d11bb)" style="fill: none; stroke: #ff7f0e; stroke-width: 1.5; stroke-linecap: square"/>
   </g>
   <g id="line2d_15">
    <path d="M 58.35767 286.92 
L 61.944447 286.919995 
L 65.531224 286.919988 
L 69.118001 286.919978 
L 72.704778 286.919962 
L 76.291555 286.919937 
L 79.878332 286.919901 
L 83.465108 286.919845 
L 87.051885 286.919761 
L 90.638662 286.919634 
L 94.225439 286.919442 
L 97.812216 286.919155 
L 101.398993 286.918723 
L 104.98577 286.918076 
L 108.572546 286.917108 
L 112.159323 286.915665 
L 115.7461 286.913515 
L 119.332877 286.910325 
L 122.919654 286.905602 
L 126.506431 286.898633 
L 130.093208 286.888388 
L 133.679985 286.873389 
L 137.266761 286.851528 
L 140.853538 286.819835 
L 144.440315 286.774156 
L 148.027092 286.708762 
L 151.613869 286.615859 
L 155.200646 286.485026 
L 158.787423 286.302612 
L 162.374199 286.051167 
L 165.960976 285.70902 
L 169.547753 285.250194 
L 173.13453 284.644848 
L 176.721307 283.860439 
L 180.308084 282.863722 
L 183.894861 281.623499 
L 187.481637 280.113807 
L 191.068414 278.316993 
L 194.655191 276.226013 
L 198.241968 273.845397 
L 201.828745 271.190625 
L 205.415522 268.286079 
L 209.002299 265.162088 
L 212.589075 261.851704 
L 216.175852 258.387825 
L 219.762629 254.801014 
L 223.349406 251.118157 
L 226.936183 247.361878 
L 230.52296 243.550528 
L 234.109737 239.698547 
L 237.696513 235.817013 
L 241.28329 231.914247 
L 244.870067 227.996387 
L 248.456844 224.067896 
L 252.043621 220.131974 
L 255.630398 216.190897 
L 259.217175 212.246262 
L 262.803951 208.299186 
L 266.390728 204.350443 
L 269.977505 200.400566 
L 273.564282 196.44992 
L 277.151059 192.498755 
L 280.737836 188.54724 
L 284.324613 184.595491 
L 287.911389 180.643584 
L 291.498166 176.691571 
L 295.084943 172.739488 
L 298.67172 168.787359 
L 302.258497 164.835198 
L 305.845274 160.883017 
L 309.432051 156.930822 
L 313.018827 152.978618 
L 316.605604 149.026408 
L 320.192381 145.074194 
L 323.779158 141.121977 
L 327.365935 137.169759 
L 330.952712 133.217539 
L 334.539489 129.265319 
L 338.126265 125.313098 
L 341.713042 121.360877 
L 345.299819 117.408656 
L 348.886596 113.456434 
L 352.473373 109.504213 
L 356.06015 105.551991 
L 359.646927 101.599769 
L 363.233704 97.647548 
L 366.82048 93.695326 
L 370.407257 89.743104 
L 373.994034 85.790883 
L 377.580811 81.838661 
L 381.167588 77.886439 
L 384.754365 73.934218 
L 388.341142 69.981996 
L 391.927918 66.029774 
L 395.514695 62.077552 
L 399.101472 58.125331 
L 402.688249 54.173109 
L 406.275026 50.220887 
L 409.861803 46.268666 
L 413.44858 42.316444 
" clip-path="url(#p63174d11bb)" style="fill: none; stroke: #ff7f0e; stroke-width: 1.5; stroke-linecap: square"/>
   </g>
   <g id="line2d_16">
    <path d="M 58.35767 286.92 
L 61.944447 286.919995 
L 65.531224 286.919988 
L 69.118001 286.919977 
L 72.704778 286.91996 
L 76.291555 286.919935 
L 79.878332 286.919895 
L 83.465108 286.919836 
L 87.051885 286.919745 
L 90.638662 286.919606 
L 94.225439 286.919396 
L 97.812216 286.919079 
L 101.398993 286.918598 
L 104.98577 286.917873 
L 108.572546 286.91678 
L 112.159323 286.915139 
L 115.7461 286.912679 
L 119.332877 286.909003 
L 122.919654 286.903527 
L 126.506431 286.895396 
L 130.093208 286.883374 
L 133.679985 286.865675 
L 137.266761 286.839749 
L 140.853538 286.801988 
L 144.440315 286.747345 
L 148.027092 286.668854 
L 151.613869 286.55706 
L 155.200646 286.399369 
L 158.787423 286.179395 
L 162.374199 285.876394 
L 165.960976 285.464971 
L 169.547753 284.91527 
L 173.13453 284.193881 
L 176.721307 283.265638 
L 180.308084 282.096339 
L 183.894861 280.656104 
L 187.481637 278.922886 
L 191.068414 276.88536 
L 194.655191 274.544513 
L 198.241968 271.913501 
L 201.828745 269.015821 
L 205.415522 265.882267 
L 209.002299 262.547407 
L 212.589075 259.046286 
L 216.175852 255.411852 
L 219.762629 251.673298 
L 223.349406 247.855285 
L 226.936183 243.977842 
L 230.52296 240.056719 
L 234.109737 236.10397 
L 237.696513 232.128619 
L 241.28329 228.137292 
L 244.870067 224.134783 
L 248.456844 220.124509 
L 252.043621 216.108884 
L 255.630398 212.089593 
L 259.217175 208.067805 
L 262.803951 204.044323 
L 266.390728 200.019698 
L 269.977505 195.994305 
L 273.564282 191.968396 
L 277.151059 187.942143 
L 280.737836 183.91566 
L 284.324613 179.889024 
L 287.911389 175.862287 
L 291.498166 171.835484 
L 295.084943 167.808636 
L 298.67172 163.781758 
L 302.258497 159.754862 
L 305.845274 155.727953 
L 309.432051 151.701035 
L 313.018827 147.674112 
L 316.605604 143.647186 
L 320.192381 139.620257 
L 323.779158 135.593326 
L 327.365935 131.566395 
L 330.952712 127.539463 
L 334.539489 123.51253 
L 338.126265 119.485598 
L 341.713042 115.458665 
L 345.299819 111.431732 
L 348.886596 107.404798 
L 352.473373 103.377865 
L 356.06015 99.350932 
L 359.646927 95.323999 
L 363.233704 91.297066 
L 366.82048 87.270132 
L 370.407257 83.243199 
L 373.994034 79.216266 
L 377.580811 75.189333 
L 381.167588 71.162399 
L 384.754365 67.135466 
L 388.341142 63.108533 
L 391.927918 59.0816 
L 395.514695 55.054666 
L 399.101472 51.027733 
L 402.688249 47.0008 
L 406.275026 42.973867 
L 409.861803 38.946933 
L 413.44858 34.92 
" clip-path="url(#p63174d11bb)" style="fill: none; stroke: #ff7f0e; stroke-width: 1.5; stroke-linecap: square"/>
   </g>
   <g id="patch_3">
    <path d="M 40.603125 299.52 
L 40.603125 22.32 
" style="fill: none; stroke: #000000; stroke-width: 0.8; stroke-linejoin: miter; stroke-linecap: square"/>
   </g>
   <g id="patch_4">
    <path d="M 431.203125 299.52 
L 431.203125 22.32 
" style="fill: none; stroke: #000000; stroke-width: 0.8; stroke-linejoin: miter; stroke-linecap: square"/>
   </g>
   <g id="patch_5">
    <path d="M 40.603125 299.52 
L 431.203125 299.52 
" style="fill: none; stroke: #000000; stroke-width: 0.8; stroke-linejoin: miter; stroke-linecap: square"/>
   </g>
   <g id="patch_6">
    <path d="M 40.603125 22.32 
L 431.203125 22.32 
" style="fill: none; stroke: #000000; stroke-width: 0.8; stroke-linejoin: miter; stroke-linecap: square"/>
   </g>
   <g id="text_14">
    <!-- Transfer function $\phi_E$ -->
    <g transform="translate(175.783125 16.32) scale(0.12 -0.12)">
     <defs>
      <path id="DejaVuSans-54" d="M -19 4666 
L 3928 4666 
L 3928 4134 
L 2272 4134 
L 2272 0 
L 1638 0 
L 1638 4134 
L -19 4134 
L -19 4666 
z
" transform="scale(0.015625)"/>
      <path id="DejaVuSans-73" d="M 2834 3397 
L 2834 2853 
Q 2591 2978 2328 3040 
Q 2066 3103 1784 3103 
Q 1356 3103 1142 2972 
Q 928 2841 928 2578 
Q 928 2378 1081 2264 
Q 1234 2150 1697 2047 
L 1894 2003 
Q 2506 1872 2764 1633 
Q 3022 1394 3022 966 
Q 3022 478 2636 193 
Q 2250 -91 1575 -91 
Q 1294 -91 989 -36 
Q 684 19 347 128 
L 347 722 
Q 666 556 975 473 
Q 1284 391 1588 391 
Q 1994 391 2212 530 
Q 2431 669 2431 922 
Q 2431 1156 2273 1281 
Q 2116 1406 1581 1522 
L 1381 1569 
Q 847 1681 609 1914 
Q 372 2147 372 2553 
Q 372 3047 722 3315 
Q 1072 3584 1716 3584 
Q 2034 3584 2315 3537 
Q 2597 3491 2834 3397 
z
" transform="scale(0.015625)"/>
      <path id="DejaVuSans-66" d="M 2375 4863 
L 2375 4384 
L 1825 4384 
Q 1516 4384 1395 4259 
Q 1275 4134 1275 3809 
L 1275 3500 
L 2222 3500 
L 2222 3053 
L 1275 3053 
L 1275 0 
L 697 0 
L 697 3053 
L 147 3053 
L 147 3500 
L 697 3500 
L 697 3744 
Q 697 4328 969 4595 
Q 1241 4863 1831 4863 
L 2375 4863 
z
" transform="scale(0.015625)"/>
      <path id="DejaVuSans-6f" d="M 1959 3097 
Q 1497 3097 1228 2736 
Q 959 2375 959 1747 
Q 959 1119 1226 758 
Q 1494 397 1959 397 
Q 2419 397 2687 759 
Q 2956 1122 2956 1747 
Q 2956 2369 2687 2733 
Q 2419 3097 1959 3097 
z
M 1959 3584 
Q 2709 3584 3137 3096 
Q 3566 2609 3566 1747 
Q 3566 888 3137 398 
Q 2709 -91 1959 -91 
Q 1206 -91 779 398 
Q 353 888 353 1747 
Q 353 2609 779 3096 
Q 1206 3584 1959 3584 
z
" transform="scale(0.015625)"/>
      <path id="DejaVuSans-Oblique-3d5" d="M 2991 4863 
L 2738 3572 
Q 3363 3572 3684 3094 
Q 4016 2606 3850 1747 
Q 3681 888 3159 400 
Q 2653 -78 2028 -78 
L 1784 -1331 
L 1213 -1331 
L 1456 -78 
Q 834 -78 509 400 
Q 178 888 347 1747 
Q 513 2606 1034 3094 
Q 1544 3572 2166 3572 
L 2419 4863 
L 2991 4863 
z
M 2128 434 
Q 2481 434 2784 756 
Q 3116 1116 3244 1747 
Q 3369 2372 3169 2738 
Q 2991 3059 2638 3059 
L 2128 434 
z
M 1556 434 
L 2066 3059 
Q 1716 3059 1413 2738 
Q 1072 2372 953 1747 
Q 834 1116 1028 756 
Q 1203 434 1556 434 
z
" transform="scale(0.015625)"/>
      <path id="DejaVuSans-Oblique-45" d="M 1081 4666 
L 4031 4666 
L 3928 4134 
L 1606 4134 
L 1338 2753 
L 3566 2753 
L 3463 2222 
L 1234 2222 
L 909 531 
L 3284 531 
L 3181 0 
L 172 0 
L 1081 4666 
z
" transform="scale(0.015625)"/>
     </defs>
     <use xlink:href="#DejaVuSans-54" transform="translate(0 0.015625)"/>
     <use xlink:href="#DejaVuSans-72" transform="translate(61.083984 0.015625)"/>
     <use xlink:href="#DejaVuSans-61" transform="translate(102.197266 0.015625)"/>
     <use xlink:href="#DejaVuSans-6e" transform="translate(163.476562 0.015625)"/>
     <use xlink:href="#DejaVuSans-73" transform="translate(226.855469 0.015625)"/>
     <use xlink:href="#DejaVuSans-66" transform="translate(278.955078 0.015625)"/>
     <use xlink:href="#DejaVuSans-65" transform="translate(314.160156 0.015625)"/>
     <use xlink:href="#DejaVuSans-72" transform="translate(375.683594 0.015625)"/>
     <use xlink:href="#DejaVuSans-20" transform="translate(416.796875 0.015625)"/>
     <use xlink:href="#DejaVuSans-66" transform="translate(448.583984 0.015625)"/>
     <use xlink:href="#DejaVuSans-75" transform="translate(483.789062 0.015625)"/>
     <use xlink:href="#DejaVuSans-6e" transform="translate(547.167969 0.015625)"/>
     <use xlink:href="#DejaVuSans-63" transform="translate(610.546875 0.015625)"/>
     <use xlink:href="#DejaVuSans-74" transform="translate(665.527344 0.015625)"/>
     <use xlink:href="#DejaVuSans-69" transform="translate(704.736328 0.015625)"/>
     <use xlink:href="#DejaVuSans-6f" transform="translate(732.519531 0.015625)"/>
     <use xlink:href="#DejaVuSans-6e" transform="translate(793.701172 0.015625)"/>
     <use xlink:href="#DejaVuSans-20" transform="translate(857.080078 0.015625)"/>
     <use xlink:href="#DejaVuSans-Oblique-3d5" transform="translate(888.867188 0.015625)"/>
     <use xlink:href="#DejaVuSans-Oblique-45" transform="translate(954.833984 -16.390625) scale(0.7)"/>
    </g>
   </g>
  </g>
 </g>
 <defs>
  <clipPath id="p63174d11bb">
   <rect x="40.603125" y="22.32" width="390.6" height="277.2"/>
  </clipPath>
 </defs>
</svg>
