<?xml version="1.0" encoding="utf-8" standalone="no"?>
<!DOCTYPE svg PUBLIC "-//W3C//DTD SVG 1.1//EN"
  "http://www.w3.org/Graphics/SVG/1.1/DTD/svg11.dtd">
<svg xmlns:xlink="http://www.w3.org/1999/xlink" width="444.765625pt" height="337.074375pt" viewBox="0 0 444.765625 337.074375" xmlns="http://www.w3.org/2000/svg" version="1.1">
 <metadata>
  <rdf:RDF xmlns:dc="http://purl.org/dc/elements/1.1/" xmlns:cc="http://creativecommons.org/ns#" xmlns:rdf="http://www.w3.org/1999/02/22-rdf-syntax-ns#">
   <cc:Work>
    <dc:type rdf:resource="http://purl.org/dc/dcmitype/StillImage"/>
    <dc:date>2026-06-01T11:57:51.343205</dc:date>
    <dc:format>image/svg+xml</dc:format>
    <dc:creator>
     <cc:Agent>
      <dc:title>Matplotlib v3.10.6, https://matplotlib.org/</dc:title>
     </cc:Agent>
    </dc:creator>
   </cc:Work>
  </rdf:RDF>
 </metadata>
 <defs>
  <style type="text/css">*{stroke-linejoin: round; stroke-linecap: butt}</style>
 </defs>
 <g id="figure_1">
  <g id="patch_1">
   <path d="M 0 337.074375 
L 444.765625 337.074375 
L 444.765625 0 
L 0 0 
z
" style="fill: #ffffff"/>
  </g>
  <g id="axes_1">
   <g id="patch_2">
    <path d="M 46.965625 299.518125 
L 437.565625 299.518125 
L 437.565625 22.318125 
L 46.965625 22.318125 
z
" style="fill: #ffffff"/>
   </g>
   <g id="matplotlib.axis_1">
    <g id="xtick_1">
     <g id="line2d_1">
      <defs>
       <path id="mf977db3a2e" d="M 0 0 
L 0 3.5 
" style="stroke: #000000; stroke-width: 0.8"/>
      </defs>
      <g>
       <use xlink:href="#mf977db3a2e" x="64.72017" y="299.518125" style="stroke: #000000; stroke-width: 0.8"/>
      </g>
     </g>
     <g id="text_1">
      <!-- 0.0 -->
      <g transform="translate(56.768608 314.116563) scale(0.1 -0.1)">
       <defs>
        <path id="DejaVuSans-30" d="M 2034 4250 
Q 1547 4250 1301 3770 
Q 1056 3291 1056 2328 
Q 1056 1369 1301 889 
Q 1547 409 2034 409 
Q 2525 409 2770 889 
Q 3016 1369 3016 2328 
Q 3016 3291 2770 3770 
Q 2525 4250 2034 4250 
z
M 2034 4750 
Q 2819 4750 3233 4129 
Q 3647 3509 3647 2328 
Q 3647 1150 3233 529 
Q 2819 -91 2034 -91 
Q 1250 -91 836 529 
Q 422 1150 422 2328 
Q 422 3509 836 4129 
Q 1250 4750 2034 4750 
z
" transform="scale(0.015625)"/>
        <path id="DejaVuSans-2e" d="M 684 794 
L 1344 794 
L 1344 0 
L 684 0 
L 684 794 
z
" transform="scale(0.015625)"/>
       </defs>
       <use xlink:href="#DejaVuSans-30"/>
       <use xlink:href="#DejaVuSans-2e" transform="translate(63.623047 0)"/>
       <use xlink:href="#DejaVuSans-30" transform="translate(95.410156 0)"/>
      </g>
     </g>
    </g>
    <g id="xtick_2">
     <g id="line2d_2">
      <g>
       <use xlink:href="#mf977db3a2e" x="135.738352" y="299.518125" style="stroke: #000000; stroke-width: 0.8"/>
      </g>
     </g>
     <g id="text_2">
      <!-- 0.2 -->
      <g transform="translate(127.78679 314.116563) scale(0.1 -0.1)">
       <defs>
        <path id="DejaVuSans-32" d="M 1228 531 
L 3431 531 
L 3431 0 
L 469 0 
L 469 531 
Q 828 903 1448 1529 
Q 2069 2156 2228 2338 
Q 2531 2678 2651 2914 
Q 2772 3150 2772 3378 
Q 2772 3750 2511 3984 
Q 2250 4219 1831 4219 
Q 1534 4219 1204 4116 
Q 875 4013 500 3803 
L 500 4441 
Q 881 4594 1212 4672 
Q 1544 4750 1819 4750 
Q 2544 4750 2975 4387 
Q 3406 4025 3406 3419 
Q 3406 3131 3298 2873 
Q 3191 2616 2906 2266 
Q 2828 2175 2409 1742 
Q 1991 1309 1228 531 
z
" transform="scale(0.015625)"/>
       </defs>
       <use xlink:href="#DejaVuSans-30"/>
       <use xlink:href="#DejaVuSans-2e" transform="translate(63.623047 0)"/>
       <use xlink:href="#DejaVuSans-32" transform="translate(95.410156 0)"/>
      </g>
     </g>
    </g>
    <g id="xtick_3">
     <g id="line2d_3">
      <g>
       <use xlink:href="#mf977db3a2e" x="206.756534" y="299.518125" style="stroke: #000000; stroke-width: 0.8"/>
      </g>
     </g>
     <g id="text_3">
      <!-- 0.4 -->
      <g transform="translate(198.804972 314.116563) scale(0.1 -0.1)">
       <defs>
        <path id="DejaVuSans-34" d="M 2419 4116 
L 825 1625 
L 2419 1625 
L 2419 4116 
z
M 2253 4666 
L 3047 4666 
L 3047 1625 
L 3713 1625 
L 3713 1100 
L 3047 1100 
L 3047 0 
L 2419 0 
L 2419 1100 
L 313 1100 
L 313 1709 
L 2253 4666 
z
" transform="scale(0.015625)"/>
       </defs>
       <use xlink:href="#DejaVuSans-30"/>
       <use xlink:href="#DejaVuSans-2e" transform="translate(63.623047 0)"/>
       <use xlink:href="#DejaVuSans-34" transform="translate(95.410156 0)"/>
      </g>
     </g>
    </g>
    <g id="xtick_4">
     <g id="line2d_4">
      <g>
       <use xlink:href="#mf977db3a2e" x="277.774716" y="299.518125" style="stroke: #000000; stroke-width: 0.8"/>
      </g>
     </g>
     <g id="text_4">
      <!-- 0.6 -->
      <g transform="translate(269.823153 314.116563) scale(0.1 -0.1)">
       <defs>
        <path id="DejaVuSans-36" d="M 2113 2584 
Q 1688 2584 1439 2293 
Q 1191 2003 1191 1497 
Q 1191 994 1439 701 
Q 1688 409 2113 409 
Q 2538 409 2786 701 
Q 3034 994 3034 1497 
Q 3034 2003 2786 2293 
Q 2538 2584 2113 2584 
z
M 3366 4563 
L 3366 3988 
Q 3128 4100 2886 4159 
Q 2644 4219 2406 4219 
Q 1781 4219 1451 3797 
Q 1122 3375 1075 2522 
Q 1259 2794 1537 2939 
Q 1816 3084 2150 3084 
Q 2853 3084 3261 2657 
Q 3669 2231 3669 1497 
Q 3669 778 3244 343 
Q 2819 -91 2113 -91 
Q 1303 -91 875 529 
Q 447 1150 447 2328 
Q 447 3434 972 4092 
Q 1497 4750 2381 4750 
Q 2619 4750 2861 4703 
Q 3103 4656 3366 4563 
z
" transform="scale(0.015625)"/>
       </defs>
       <use xlink:href="#DejaVuSans-30"/>
       <use xlink:href="#DejaVuSans-2e" transform="translate(63.623047 0)"/>
       <use xlink:href="#DejaVuSans-36" transform="translate(95.410156 0)"/>
      </g>
     </g>
    </g>
    <g id="xtick_5">
     <g id="line2d_5">
      <g>
       <use xlink:href="#mf977db3a2e" x="348.792898" y="299.518125" style="stroke: #000000; stroke-width: 0.8"/>
      </g>
     </g>
     <g id="text_5">
      <!-- 0.8 -->
      <g transform="translate(340.841335 314.116563) scale(0.1 -0.1)">
       <defs>
        <path id="DejaVuSans-38" d="M 2034 2216 
Q 1584 2216 1326 1975 
Q 1069 1734 1069 1313 
Q 1069 891 1326 650 
Q 1584 409 2034 409 
Q 2484 409 2743 651 
Q 3003 894 3003 1313 
Q 3003 1734 2745 1975 
Q 2488 2216 2034 2216 
z
M 1403 2484 
Q 997 2584 770 2862 
Q 544 3141 544 3541 
Q 544 4100 942 4425 
Q 1341 4750 2034 4750 
Q 2731 4750 3128 4425 
Q 3525 4100 3525 3541 
Q 3525 3141 3298 2862 
Q 3072 2584 2669 2484 
Q 3125 2378 3379 2068 
Q 3634 1759 3634 1313 
Q 3634 634 3220 271 
Q 2806 -91 2034 -91 
Q 1263 -91 848 271 
Q 434 634 434 1313 
Q 434 1759 690 2068 
Q 947 2378 1403 2484 
z
M 1172 3481 
Q 1172 3119 1398 2916 
Q 1625 2713 2034 2713 
Q 2441 2713 2670 2916 
Q 2900 3119 2900 3481 
Q 2900 3844 2670 4047 
Q 2441 4250 2034 4250 
Q 1625 4250 1398 4047 
Q 1172 3844 1172 3481 
z
" transform="scale(0.015625)"/>
       </defs>
       <use xlink:href="#DejaVuSans-30"/>
       <use xlink:href="#DejaVuSans-2e" transform="translate(63.623047 0)"/>
       <use xlink:href="#DejaVuSans-38" transform="translate(95.410156 0)"/>
      </g>
     </g>
    </g>
    <g id="xtick_6">
     <g id="line2d_6">
      <g>
       <use xlink:href="#mf977db3a2e" x="419.81108" y="299.518125" style="stroke: #000000; stroke-width: 0.8"/>
      </g>
     </g>
     <g id="text_6">
      <!-- 1.0 -->
      <g transform="translate(411.859517 314.116563) scale(0.1 -0.1)">
       <defs>
        <path id="DejaVuSans-31" d="M 794 531 
L 1825 531 
L 1825 4091 
L 703 3866 
L 703 4441 
L 1819 4666 
L 2450 4666 
L 2450 531 
L 3481 531 
L 3481 0 
L 794 0 
L 794 531 
z
" transform="scale(0.015625)"/>
       </defs>
       <use xlink:href="#DejaVuSans-31"/>
       <use xlink:href="#DejaVuSans-2e" transform="translate(63.623047 0)"/>
       <use xlink:href="#DejaVuSans-30" transform="translate(95.410156 0)"/>
      </g>
     </g>
    </g>
    <g id="text_7">
     <!-- Input current I (nA) -->
     <g transform="translate(194.551562 327.794688) scale(0.1 -0.1)">
      <defs>
       <path id="DejaVuSans-49" d="M 628 4666 
L 1259 4666 
L 1259 0 
L 628 0 
L 628 4666 
z
" transform="scale(0.015625)"/>
       <path id="DejaVuSans-6e" d="M 3513 2113 
L 3513 0 
L 2938 0 
L 2938 2094 
Q 2938 2591 2744 2837 
Q 2550 3084 2163 3084 
Q 1697 3084 1428 2787 
Q 1159 2491 1159 1978 
L 1159 0 
L 581 0 
L 581 3500 
L 1159 3500 
L 1159 2956 
Q 1366 3272 1645 3428 
Q 1925 3584 2291 3584 
Q 2894 3584 3203 3211 
Q 3513 2838 3513 2113 
z
" transform="scale(0.015625)"/>
       <path id="DejaVuSans-70" d="M 1159 525 
L 1159 -1331 
L 581 -1331 
L 581 3500 
L 1159 3500 
L 1159 2969 
Q 1341 3281 1617 3432 
Q 1894 3584 2278 3584 
Q 2916 3584 3314 3078 
Q 3713 2572 3713 1747 
Q 3713 922 3314 415 
Q 2916 -91 2278 -91 
Q 1894 -91 1617 61 
Q 1341 213 1159 525 
z
M 3116 1747 
Q 3116 2381 2855 2742 
Q 2594 3103 2138 3103 
Q 1681 3103 1420 2742 
Q 1159 2381 1159 1747 
Q 1159 1113 1420 752 
Q 1681 391 2138 391 
Q 2594 391 2855 752 
Q 3116 1113 3116 1747 
z
" transform="scale(0.015625)"/>
       <path id="DejaVuSans-75" d="M 544 1381 
L 544 3500 
L 1119 3500 
L 1119 1403 
Q 1119 906 1312 657 
Q 1506 409 1894 409 
Q 2359 409 2629 706 
Q 2900 1003 2900 1516 
L 2900 3500 
L 3475 3500 
L 3475 0 
L 2900 0 
L 2900 538 
Q 2691 219 2414 64 
Q 2138 -91 1772 -91 
Q 1169 -91 856 284 
Q 544 659 544 1381 
z
M 1991 3584 
L 1991 3584 
z
" transform="scale(0.015625)"/>
       <path id="DejaVuSans-74" d="M 1172 4494 
L 1172 3500 
L 2356 3500 
L 2356 3053 
L 1172 3053 
L 1172 1153 
Q 1172 725 1289 603 
Q 1406 481 1766 481 
L 2356 481 
L 2356 0 
L 1766 0 
Q 1100 0 847 248 
Q 594 497 594 1153 
L 594 3053 
L 172 3053 
L 172 3500 
L 594 3500 
L 594 4494 
L 1172 4494 
z
" transform="scale(0.015625)"/>
       <path id="DejaVuSans-20" transform="scale(0.015625)"/>
       <path id="DejaVuSans-63" d="M 3122 3366 
L 3122 2828 
Q 2878 2963 2633 3030 
Q 2388 3097 2138 3097 
Q 1578 3097 1268 2742 
Q 959 2388 959 1747 
Q 959 1106 1268 751 
Q 1578 397 2138 397 
Q 2388 397 2633 464 
Q 2878 531 3122 666 
L 3122 134 
Q 2881 22 2623 -34 
Q 2366 -91 2075 -91 
Q 1284 -91 818 406 
Q 353 903 353 1747 
Q 353 2603 823 3093 
Q 1294 3584 2113 3584 
Q 2378 3584 2631 3529 
Q 2884 3475 3122 3366 
z
" transform="scale(0.015625)"/>
       <path id="DejaVuSans-72" d="M 2631 2963 
Q 2534 3019 2420 3045 
Q 2306 3072 2169 3072 
Q 1681 3072 1420 2755 
Q 1159 2438 1159 1844 
L 1159 0 
L 581 0 
L 581 3500 
L 1159 3500 
L 1159 2956 
Q 1341 3275 1631 3429 
Q 1922 3584 2338 3584 
Q 2397 3584 2469 3576 
Q 2541 3569 2628 3553 
L 2631 2963 
z
" transform="scale(0.015625)"/>
       <path id="DejaVuSans-65" d="M 3597 1894 
L 3597 1613 
L 953 1613 
Q 991 1019 1311 708 
Q 1631 397 2203 397 
Q 2534 397 2845 478 
Q 3156 559 3463 722 
L 3463 178 
Q 3153 47 2828 -22 
Q 2503 -91 2169 -91 
Q 1331 -91 842 396 
Q 353 884 353 1716 
Q 353 2575 817 3079 
Q 1281 3584 2069 3584 
Q 2775 3584 3186 3129 
Q 3597 2675 3597 1894 
z
M 3022 2063 
Q 3016 2534 2758 2815 
Q 2500 3097 2075 3097 
Q 1594 3097 1305 2825 
Q 1016 2553 972 2059 
L 3022 2063 
z
" transform="scale(0.015625)"/>
       <path id="DejaVuSans-28" d="M 1984 4856 
Q 1566 4138 1362 3434 
Q 1159 2731 1159 2009 
Q 1159 1288 1364 580 
Q 1569 -128 1984 -844 
L 1484 -844 
Q 1016 -109 783 600 
Q 550 1309 550 2009 
Q 550 2706 781 3412 
Q 1013 4119 1484 4856 
L 1984 4856 
z
" transform="scale(0.015625)"/>
       <path id="DejaVuSans-41" d="M 2188 4044 
L 1331 1722 
L 3047 1722 
L 2188 4044 
z
M 1831 4666 
L 2547 4666 
L 4325 0 
L 3669 0 
L 3244 1197 
L 1141 1197 
L 716 0 
L 50 0 
L 1831 4666 
z
" transform="scale(0.015625)"/>
       <path id="DejaVuSans-29" d="M 513 4856 
L 1013 4856 
Q 1481 4119 1714 3412 
Q 1947 2706 1947 2009 
Q 1947 1309 1714 600 
Q 1481 -109 1013 -844 
L 513 -844 
Q 928 -128 1133 580 
Q 1338 1288 1338 2009 
Q 1338 2731 1133 3434 
Q 928 4138 513 4856 
z
" transform="scale(0.015625)"/>
      </defs>
      <use xlink:href="#DejaVuSans-49"/>
      <use xlink:href="#DejaVuSans-6e" transform="translate(29.492188 0)"/>
      <use xlink:href="#DejaVuSans-70" transform="translate(92.871094 0)"/>
      <use xlink:href="#DejaVuSans-75" transform="translate(156.347656 0)"/>
      <use xlink:href="#DejaVuSans-74" transform="translate(219.726562 0)"/>
      <use xlink:href="#DejaVuSans-20" transform="translate(258.935547 0)"/>
      <use xlink:href="#DejaVuSans-63" transform="translate(290.722656 0)"/>
      <use xlink:href="#DejaVuSans-75" transform="translate(345.703125 0)"/>
      <use xlink:href="#DejaVuSans-72" transform="translate(409.082031 0)"/>
      <use xlink:href="#DejaVuSans-72" transform="translate(448.445312 0)"/>
      <use xlink:href="#DejaVuSans-65" transform="translate(487.308594 0)"/>
      <use xlink:href="#DejaVuSans-6e" transform="translate(548.832031 0)"/>
      <use xlink:href="#DejaVuSans-74" transform="translate(612.210938 0)"/>
      <use xlink:href="#DejaVuSans-20" transform="translate(651.419922 0)"/>
      <use xlink:href="#DejaVuSans-49" transform="translate(683.207031 0)"/>
      <use xlink:href="#DejaVuSans-20" transform="translate(712.699219 0)"/>
      <use xlink:href="#DejaVuSans-28" transform="translate(744.486328 0)"/>
      <use xlink:href="#DejaVuSans-6e" transform="translate(783.5 0)"/>
      <use xlink:href="#DejaVuSans-41" transform="translate(846.878906 0)"/>
      <use xlink:href="#DejaVuSans-29" transform="translate(915.287109 0)"/>
     </g>
    </g>
   </g>
   <g id="matplotlib.axis_2">
    <g id="ytick_1">
     <g id="line2d_7">
      <defs>
       <path id="mf0b2deaf91" d="M 0 0 
L -3.5 0 
" style="stroke: #000000; stroke-width: 0.8"/>
      </defs>
      <g>
       <use xlink:href="#mf0b2deaf91" x="46.965625" y="286.918125" style="stroke: #000000; stroke-width: 0.8"/>
      </g>
     </g>
     <g id="text_8">
      <!-- 0 -->
      <g transform="translate(33.603125 290.717344) scale(0.1 -0.1)">
       <use xlink:href="#DejaVuSans-30"/>
      </g>
     </g>
    </g>
    <g id="ytick_2">
     <g id="line2d_8">
      <g>
       <use xlink:href="#mf0b2deaf91" x="46.965625" y="243.092038" style="stroke: #000000; stroke-width: 0.8"/>
      </g>
     </g>
     <g id="text_9">
      <!-- 20 -->
      <g transform="translate(27.240625 246.891257) scale(0.1 -0.1)">
       <use xlink:href="#DejaVuSans-32"/>
       <use xlink:href="#DejaVuSans-30" transform="translate(63.623047 0)"/>
      </g>
     </g>
    </g>
    <g id="ytick_3">
     <g id="line2d_9">
      <g>
       <use xlink:href="#mf0b2deaf91" x="46.965625" y="199.265951" style="stroke: #000000; stroke-width: 0.8"/>
      </g>
     </g>
     <g id="text_10">
      <!-- 40 -->
      <g transform="translate(27.240625 203.06517) scale(0.1 -0.1)">
       <use xlink:href="#DejaVuSans-34"/>
       <use xlink:href="#DejaVuSans-30" transform="translate(63.623047 0)"/>
      </g>
     </g>
    </g>
    <g id="ytick_4">
     <g id="line2d_10">
      <g>
       <use xlink:href="#mf0b2deaf91" x="46.965625" y="155.439864" style="stroke: #000000; stroke-width: 0.8"/>
      </g>
     </g>
     <g id="text_11">
      <!-- 60 -->
      <g transform="translate(27.240625 159.239083) scale(0.1 -0.1)">
       <use xlink:href="#DejaVuSans-36"/>
       <use xlink:href="#DejaVuSans-30" transform="translate(63.623047 0)"/>
      </g>
     </g>
    </g>
    <g id="ytick_5">
     <g id="line2d_11">
      <g>
       <use xlink:href="#mf0b2deaf91" x="46.965625" y="111.613777" style="stroke: #000000; stroke-width: 0.8"/>
      </g>
     </g>
     <g id="text_12">
      <!-- 80 -->
      <g transform="translate(27.240625 115.412996) scale(0.1 -0.1)">
       <use xlink:href="#DejaVuSans-38"/>
       <use xlink:href="#DejaVuSans-30" transform="translate(63.623047 0)"/>
      </g>
     </g>
    </g>
    <g id="ytick_6">
     <g id="line2d_12">
      <g>
       <use xlink:href="#mf0b2deaf91" x="46.965625" y="67.78769" style="stroke: #000000; stroke-width: 0.8"/>
      </g>
     </g>
     <g id="text_13">
      <!-- 100 -->
      <g transform="translate(20.878125 71.586909) scale(0.1 -0.1)">
       <use xlink:href="#DejaVuSans-31"/>
       <use xlink:href="#DejaVuSans-30" transform="translate(63.623047 0)"/>
       <use xlink:href="#DejaVuSans-30" transform="translate(127.246094 0)"/>
      </g>
     </g>
    </g>
    <g id="ytick_7">
     <g id="line2d_13">
      <g>
       <use xlink:href="#mf0b2deaf91" x="46.965625" y="23.961603" style="stroke: #000000; stroke-width: 0.8"/>
      </g>
     </g>
     <g id="text_14">
      <!-- 120 -->
      <g transform="translate(20.878125 27.760822) scale(0.1 -0.1)">
       <use xlink:href="#DejaVuSans-31"/>
       <use xlink:href="#DejaVuSans-32" transform="translate(63.623047 0)"/>
       <use xlink:href="#DejaVuSans-30" transform="translate(127.246094 0)"/>
      </g>
     </g>
    </g>
    <g id="text_15">
     <!-- Firing rate (Hz) -->
     <g transform="translate(14.798437 198.228281) rotate(-90) scale(0.1 -0.1)">
      <defs>
       <path id="DejaVuSans-46" d="M 628 4666 
L 3309 4666 
L 3309 4134 
L 1259 4134 
L 1259 2759 
L 3109 2759 
L 3109 2228 
L 1259 2228 
L 1259 0 
L 628 0 
L 628 4666 
z
" transform="scale(0.015625)"/>
       <path id="DejaVuSans-69" d="M 603 3500 
L 1178 3500 
L 1178 0 
L 603 0 
L 603 3500 
z
M 603 4863 
L 1178 4863 
L 1178 4134 
L 603 4134 
L 603 4863 
z
" transform="scale(0.015625)"/>
       <path id="DejaVuSans-67" d="M 2906 1791 
Q 2906 2416 2648 2759 
Q 2391 3103 1925 3103 
Q 1463 3103 1205 2759 
Q 947 2416 947 1791 
Q 947 1169 1205 825 
Q 1463 481 1925 481 
Q 2391 481 2648 825 
Q 2906 1169 2906 1791 
z
M 3481 434 
Q 3481 -459 3084 -895 
Q 2688 -1331 1869 -1331 
Q 1566 -1331 1297 -1286 
Q 1028 -1241 775 -1147 
L 775 -588 
Q 1028 -725 1275 -790 
Q 1522 -856 1778 -856 
Q 2344 -856 2625 -561 
Q 2906 -266 2906 331 
L 2906 616 
Q 2728 306 2450 153 
Q 2172 0 1784 0 
Q 1141 0 747 490 
Q 353 981 353 1791 
Q 353 2603 747 3093 
Q 1141 3584 1784 3584 
Q 2172 3584 2450 3431 
Q 2728 3278 2906 2969 
L 2906 3500 
L 3481 3500 
L 3481 434 
z
" transform="scale(0.015625)"/>
       <path id="DejaVuSans-61" d="M 2194 1759 
Q 1497 1759 1228 1600 
Q 959 1441 959 1056 
Q 959 750 1161 570 
Q 1363 391 1709 391 
Q 2188 391 2477 730 
Q 2766 1069 2766 1631 
L 2766 1759 
L 2194 1759 
z
M 3341 1997 
L 3341 0 
L 2766 0 
L 2766 531 
Q 2569 213 2275 61 
Q 1981 -91 1556 -91 
Q 1019 -91 701 211 
Q 384 513 384 1019 
Q 384 1609 779 1909 
Q 1175 2209 1959 2209 
L 2766 2209 
L 2766 2266 
Q 2766 2663 2505 2880 
Q 2244 3097 1772 3097 
Q 1472 3097 1187 3025 
Q 903 2953 641 2809 
L 641 3341 
Q 956 3463 1253 3523 
Q 1550 3584 1831 3584 
Q 2591 3584 2966 3190 
Q 3341 2797 3341 1997 
z
" transform="scale(0.015625)"/>
       <path id="DejaVuSans-48" d="M 628 4666 
L 1259 4666 
L 1259 2753 
L 3553 2753 
L 3553 4666 
L 4184 4666 
L 4184 0 
L 3553 0 
L 3553 2222 
L 1259 2222 
L 1259 0 
L 628 0 
L 628 4666 
z
" transform="scale(0.015625)"/>
       <path id="DejaVuSans-7a" d="M 353 3500 
L 3084 3500 
L 3084 2975 
L 922 459 
L 3084 459 
L 3084 0 
L 275 0 
L 275 525 
L 2438 3041 
L 353 3041 
L 353 3500 
z
" transform="scale(0.015625)"/>
      </defs>
      <use xlink:href="#DejaVuSans-46"/>
      <use xlink:href="#DejaVuSans-69" transform="translate(50.269531 0)"/>
      <use xlink:href="#DejaVuSans-72" transform="translate(78.052734 0)"/>
      <use xlink:href="#DejaVuSans-69" transform="translate(119.166016 0)"/>
      <use xlink:href="#DejaVuSans-6e" transform="translate(146.949219 0)"/>
      <use xlink:href="#DejaVuSans-67" transform="translate(210.328125 0)"/>
      <use xlink:href="#DejaVuSans-20" transform="translate(273.804688 0)"/>
      <use xlink:href="#DejaVuSans-72" transform="translate(305.591797 0)"/>
      <use xlink:href="#DejaVuSans-61" transform="translate(346.705078 0)"/>
      <use xlink:href="#DejaVuSans-74" transform="translate(407.984375 0)"/>
      <use xlink:href="#DejaVuSans-65" transform="translate(447.193359 0)"/>
      <use xlink:href="#DejaVuSans-20" transform="translate(508.716797 0)"/>
      <use xlink:href="#DejaVuSans-28" transform="translate(540.503906 0)"/>
      <use xlink:href="#DejaVuSans-48" transform="translate(579.517578 0)"/>
      <use xlink:href="#DejaVuSans-7a" transform="translate(654.712891 0)"/>
      <use xlink:href="#DejaVuSans-29" transform="translate(707.203125 0)"/>
     </g>
    </g>
   </g>
   <g id="line2d_14">
    <path d="M 64.72017 286.918118 
L 68.306947 286.918114 
L 71.893724 286.918109 
L 75.480501 286.918102 
L 79.067278 286.918091 
L 82.654055 286.918074 
L 86.240832 286.91805 
L 89.827608 286.918015 
L 93.414385 286.917962 
L 97.001162 286.917885 
L 100.587939 286.917772 
L 104.174716 286.917606 
L 107.761493 286.917363 
L 111.34827 286.917007 
L 114.935046 286.916488 
L 118.521823 286.91573 
L 122.1086 286.914629 
L 125.695377 286.913029 
L 129.282154 286.910712 
L 132.868931 286.907365 
L 136.455708 286.902542 
L 140.042485 286.895615 
L 143.629261 286.8857 
L 147.216038 286.871565 
L 150.802815 286.851498 
L 154.389592 286.823151 
L 157.976369 286.783325 
L 161.563146 286.727721 
L 165.149923 286.65063 
L 168.736699 286.5446 
L 172.323476 286.400077 
L 175.910253 286.205084 
L 179.49703 285.944999 
L 183.083807 285.602516 
L 186.670584 285.15791 
L 190.257361 284.58969 
L 193.844137 283.875721 
L 197.430914 282.994755 
L 201.017691 281.92827 
L 204.604468 280.662332 
L 208.191245 279.189146 
L 211.778022 277.507986 
L 215.364799 275.625281 
L 218.951575 273.553848 
L 222.538352 271.311434 
L 226.125129 268.918894 
L 229.711906 266.398322 
L 233.298683 263.771441 
L 236.88546 261.058395 
L 240.472237 258.277007 
L 244.059013 255.442442 
L 247.64579 252.567191 
L 251.232567 249.661268 
L 254.819344 246.732521 
L 258.406121 243.786975 
L 261.992898 240.829189 
L 265.579675 237.862557 
L 269.166451 234.889582 
L 272.753228 231.912086 
L 276.340005 228.931388 
L 279.926782 225.948432 
L 283.513559 222.963892 
L 287.100336 219.978244 
L 290.687113 216.991825 
L 294.273889 214.00487 
L 297.860666 211.017544 
L 301.447443 208.029962 
L 305.03422 205.042203 
L 308.620997 202.054324 
L 312.207774 199.06636 
L 315.794551 196.07834 
L 319.381327 193.090281 
L 322.968104 190.102196 
L 326.554881 187.114092 
L 330.141658 184.125976 
L 333.728435 181.137851 
L 337.315212 178.149721 
L 340.901989 175.161586 
L 344.488765 172.17345 
L 348.075542 169.185311 
L 351.662319 166.197171 
L 355.249096 163.209031 
L 358.835873 160.220889 
L 362.42265 157.232748 
L 366.009427 154.244606 
L 369.596204 151.256464 
L 373.18298 148.268322 
L 376.769757 145.28018 
L 380.356534 142.292038 
L 383.943311 139.303896 
L 387.530088 136.315753 
L 391.116865 133.327611 
L 394.703642 130.339469 
L 398.290418 127.351327 
L 401.877195 124.363184 
L 405.463972 121.375042 
L 409.050749 118.3869 
L 412.637526 115.398757 
L 416.224303 112.410615 
L 419.81108 109.422473 
" clip-path="url(#p1ee3a04691)" style="fill: none; stroke: #1f77b4; stroke-width: 1.5; stroke-linecap: square"/>
   </g>
   <g id="line2d_15">
    <path d="M 64.72017 286.918125 
L 68.306947 286.918125 
L 71.893724 286.918125 
L 75.480501 286.918125 
L 79.067278 286.918125 
L 82.654055 286.918125 
L 86.240832 286.918125 
L 89.827608 286.918125 
L 93.414385 286.918125 
L 97.001162 286.918125 
L 100.587939 286.918125 
L 104.174716 286.918125 
L 107.761493 286.918125 
L 111.34827 286.918125 
L 114.935046 286.918125 
L 118.521823 286.918125 
L 122.1086 286.918125 
L 125.695377 286.918125 
L 129.282154 286.918125 
L 132.868931 286.918125 
L 136.455708 286.918125 
L 140.042485 286.918125 
L 143.629261 286.918125 
L 147.216038 286.918125 
L 150.802815 286.918125 
L 154.389592 286.752117 
L 157.976369 283.348955 
L 161.563146 279.945793 
L 165.149923 276.542631 
L 168.736699 273.139469 
L 172.323476 269.736307 
L 175.910253 266.333145 
L 179.49703 262.929983 
L 183.083807 259.526821 
L 186.670584 256.123659 
L 190.257361 252.720497 
L 193.844137 249.317334 
L 197.430914 245.914172 
L 201.017691 242.51101 
L 204.604468 239.107848 
L 208.191245 235.704686 
L 211.778022 232.301524 
L 215.364799 228.898362 
L 218.951575 225.4952 
L 222.538352 222.092038 
L 226.125129 218.688876 
L 229.711906 215.285714 
L 233.298683 211.882552 
L 236.88546 208.47939 
L 240.472237 205.076228 
L 244.059013 201.673066 
L 247.64579 198.269904 
L 251.232567 194.866742 
L 254.819344 191.46358 
L 258.406121 188.060417 
L 261.992898 184.657255 
L 265.579675 181.254093 
L 269.166451 177.850931 
L 272.753228 174.447769 
L 276.340005 171.044607 
L 279.926782 167.641445 
L 283.513559 164.238283 
L 287.100336 160.835121 
L 290.687113 157.431959 
L 294.273889 154.028797 
L 297.860666 150.625635 
L 301.447443 147.222473 
L 305.03422 143.819311 
L 308.620997 140.416149 
L 312.207774 137.012987 
L 315.794551 133.609825 
L 319.381327 130.206663 
L 322.968104 126.8035 
L 326.554881 123.400338 
L 330.141658 119.997176 
L 333.728435 116.594014 
L 337.315212 113.190852 
L 340.901989 109.78769 
L 344.488765 106.384528 
L 348.075542 102.981366 
L 351.662319 99.578204 
L 355.249096 96.175042 
L 358.835873 92.77188 
L 362.42265 89.368718 
L 366.009427 85.965556 
L 369.596204 82.562394 
L 373.18298 79.159232 
L 376.769757 75.75607 
L 380.356534 72.352908 
L 383.943311 68.949746 
L 387.530088 65.546583 
L 391.116865 62.143421 
L 394.703642 58.740259 
L 398.290418 55.337097 
L 401.877195 51.933935 
L 405.463972 48.530773 
L 409.050749 45.127611 
L 412.637526 41.724449 
L 416.224303 38.321287 
L 419.81108 34.918125 
" clip-path="url(#p1ee3a04691)" style="fill: none; stroke: #ff7f0e; stroke-width: 1.5; stroke-linecap: square"/>
   </g>
   <g id="patch_3">
    <path d="M 46.965625 299.518125 
L 46.965625 22.318125 
" style="fill: none; stroke: #000000; stroke-width: 0.8; stroke-linejoin: miter; stroke-linecap: square"/>
   </g>
   <g id="patch_4">
    <path d="M 437.565625 299.518125 
L 437.565625 22.318125 
" style="fill: none; stroke: #000000; stroke-width: 0.8; stroke-linejoin: miter; stroke-linecap: square"/>
   </g>
   <g id="patch_5">
    <path d="M 46.965625 299.518125 
L 437.565625 299.518125 
" style="fill: none; stroke: #000000; stroke-width: 0.8; stroke-linejoin: miter; stroke-linecap: square"/>
   </g>
   <g id="patch_6">
    <path d="M 46.965625 22.318125 
L 437.565625 22.318125 
" style="fill: none; stroke: #000000; stroke-width: 0.8; stroke-linejoin: miter; stroke-linecap: square"/>
   </g>
   <g id="text_16">
    <!-- Transfer functions -->
    <g transform="translate(188.602188 16.318125) scale(0.12 -0.12)">
     <defs>
      <path id="DejaVuSans-54" d="M -19 4666 
L 3928 4666 
L 3928 4134 
L 2272 4134 
L 2272 0 
L 1638 0 
L 1638 4134 
L -19 4134 
L -19 4666 
z
" transform="scale(0.015625)"/>
      <path id="DejaVuSans-73" d="M 2834 3397 
L 2834 2853 
Q 2591 2978 2328 3040 
Q 2066 3103 1784 3103 
Q 1356 3103 1142 2972 
Q 928 2841 928 2578 
Q 928 2378 1081 2264 
Q 1234 2150 1697 2047 
L 1894 2003 
Q 2506 1872 2764 1633 
Q 3022 1394 3022 966 
Q 3022 478 2636 193 
Q 2250 -91 1575 -91 
Q 1294 -91 989 -36 
Q 684 19 347 128 
L 347 722 
Q 666 556 975 473 
Q 1284 391 1588 391 
Q 1994 391 2212 530 
Q 2431 669 2431 922 
Q 2431 1156 2273 1281 
Q 2116 1406 1581 1522 
L 1381 1569 
Q 847 1681 609 1914 
Q 372 2147 372 2553 
Q 372 3047 722 3315 
Q 1072 3584 1716 3584 
Q 2034 3584 2315 3537 
Q 2597 3491 2834 3397 
z
" transform="scale(0.015625)"/>
      <path id="DejaVuSans-66" d="M 2375 4863 
L 2375 4384 
L 1825 4384 
Q 1516 4384 1395 4259 
Q 1275 4134 1275 3809 
L 1275 3500 
L 2222 3500 
L 2222 3053 
L 1275 3053 
L 1275 0 
L 697 0 
L 697 3053 
L 147 3053 
L 147 3500 
L 697 3500 
L 697 3744 
Q 697 4328 969 4595 
Q 1241 4863 1831 4863 
L 2375 4863 
z
" transform="scale(0.015625)"/>
      <path id="DejaVuSans-6f" d="M 1959 3097 
Q 1497 3097 1228 2736 
Q 959 2375 959 1747 
Q 959 1119 1226 758 
Q 1494 397 1959 397 
Q 2419 397 2687 759 
Q 2956 1122 2956 1747 
Q 2956 2369 2687 2733 
Q 2419 3097 1959 3097 
z
M 1959 3584 
Q 2709 3584 3137 3096 
Q 3566 2609 3566 1747 
Q 3566 888 3137 398 
Q 2709 -91 1959 -91 
Q 1206 -91 779 398 
Q 353 888 353 1747 
Q 353 2609 779 3096 
Q 1206 3584 1959 3584 
z
" transform="scale(0.015625)"/>
     </defs>
     <use xlink:href="#DejaVuSans-54"/>
     <use xlink:href="#DejaVuSans-72" transform="translate(46.333984 0)"/>
     <use xlink:href="#DejaVuSans-61" transform="translate(87.447266 0)"/>
     <use xlink:href="#DejaVuSans-6e" transform="translate(148.726562 0)"/>
     <use xlink:href="#DejaVuSans-73" transform="translate(212.105469 0)"/>
     <use xlink:href="#DejaVuSans-66" transform="translate(264.205078 0)"/>
     <use xlink:href="#DejaVuSans-65" transform="translate(299.410156 0)"/>
     <use xlink:href="#DejaVuSans-72" transform="translate(360.933594 0)"/>
     <use xlink:href="#DejaVuSans-20" transform="translate(402.046875 0)"/>
     <use xlink:href="#DejaVuSans-66" transform="translate(433.833984 0)"/>
     <use xlink:href="#DejaVuSans-75" transform="translate(469.039062 0)"/>
     <use xlink:href="#DejaVuSans-6e" transform="translate(532.417969 0)"/>
     <use xlink:href="#DejaVuSans-63" transform="translate(595.796875 0)"/>
     <use xlink:href="#DejaVuSans-74" transform="translate(650.777344 0)"/>
     <use xlink:href="#DejaVuSans-69" transform="translate(689.986328 0)"/>
     <use xlink:href="#DejaVuSans-6f" transform="translate(717.769531 0)"/>
     <use xlink:href="#DejaVuSans-6e" transform="translate(778.951172 0)"/>
     <use xlink:href="#DejaVuSans-73" transform="translate(842.330078 0)"/>
    </g>
   </g>
   <g id="legend_1">
    <g id="patch_7">
     <path d="M 53.965625 59.718125 
L 237.865625 59.718125 
Q 239.865625 59.718125 239.865625 57.718125 
L 239.865625 29.318125 
Q 239.865625 27.318125 237.865625 27.318125 
L 53.965625 27.318125 
Q 51.965625 27.318125 51.965625 29.318125 
L 51.965625 57.718125 
Q 51.965625 59.718125 53.965625 59.718125 
z
" style="fill: #ffffff; opacity: 0.8; stroke: #cccccc; stroke-linejoin: miter"/>
    </g>
    <g id="line2d_16">
     <path d="M 55.965625 35.418125 
L 65.965625 35.418125 
L 75.965625 35.418125 
" style="fill: none; stroke: #1f77b4; stroke-width: 1.5; stroke-linecap: square"/>
    </g>
    <g id="text_17">
     <!-- Excitatory transfer function $\phi_E$ -->
     <g transform="translate(83.965625 38.918125) scale(0.1 -0.1)">
      <defs>
       <path id="DejaVuSans-45" d="M 628 4666 
L 3578 4666 
L 3578 4134 
L 1259 4134 
L 1259 2753 
L 3481 2753 
L 3481 2222 
L 1259 2222 
L 1259 531 
L 3634 531 
L 3634 0 
L 628 0 
L 628 4666 
z
" transform="scale(0.015625)"/>
       <path id="DejaVuSans-78" d="M 3513 3500 
L 2247 1797 
L 3578 0 
L 2900 0 
L 1881 1375 
L 863 0 
L 184 0 
L 1544 1831 
L 300 3500 
L 978 3500 
L 1906 2253 
L 2834 3500 
L 3513 3500 
z
" transform="scale(0.015625)"/>
       <path id="DejaVuSans-79" d="M 2059 -325 
Q 1816 -950 1584 -1140 
Q 1353 -1331 966 -1331 
L 506 -1331 
L 506 -850 
L 844 -850 
Q 1081 -850 1212 -737 
Q 1344 -625 1503 -206 
L 1606 56 
L 191 3500 
L 800 3500 
L 1894 763 
L 2988 3500 
L 3597 3500 
L 2059 -325 
z
" transform="scale(0.015625)"/>
       <path id="DejaVuSans-Oblique-3d5" d="M 2991 4863 
L 2738 3572 
Q 3363 3572 3684 3094 
Q 4016 2606 3850 1747 
Q 3681 888 3159 400 
Q 2653 -78 2028 -78 
L 1784 -1331 
L 1213 -1331 
L 1456 -78 
Q 834 -78 509 400 
Q 178 888 347 1747 
Q 513 2606 1034 3094 
Q 1544 3572 2166 3572 
L 2419 4863 
L 2991 4863 
z
M 2128 434 
Q 2481 434 2784 756 
Q 3116 1116 3244 1747 
Q 3369 2372 3169 2738 
Q 2991 3059 2638 3059 
L 2128 434 
z
M 1556 434 
L 2066 3059 
Q 1716 3059 1413 2738 
Q 1072 2372 953 1747 
Q 834 1116 1028 756 
Q 1203 434 1556 434 
z
" transform="scale(0.015625)"/>
       <path id="DejaVuSans-Oblique-45" d="M 1081 4666 
L 4031 4666 
L 3928 4134 
L 1606 4134 
L 1338 2753 
L 3566 2753 
L 3463 2222 
L 1234 2222 
L 909 531 
L 3284 531 
L 3181 0 
L 172 0 
L 1081 4666 
z
" transform="scale(0.015625)"/>
      </defs>
      <use xlink:href="#DejaVuSans-45" transform="translate(0 0.015625)"/>
      <use xlink:href="#DejaVuSans-78" transform="translate(63.183594 0.015625)"/>
      <use xlink:href="#DejaVuSans-63" transform="translate(122.363281 0.015625)"/>
      <use xlink:href="#DejaVuSans-69" transform="translate(177.34375 0.015625)"/>
      <use xlink:href="#DejaVuSans-74" transform="translate(205.126953 0.015625)"/>
      <use xlink:href="#DejaVuSans-61" transform="translate(244.335938 0.015625)"/>
      <use xlink:href="#DejaVuSans-74" transform="translate(305.615234 0.015625)"/>
      <use xlink:href="#DejaVuSans-6f" transform="translate(344.824219 0.015625)"/>
      <use xlink:href="#DejaVuSans-72" transform="translate(406.005859 0.015625)"/>
      <use xlink:href="#DejaVuSans-79" transform="translate(447.119141 0.015625)"/>
      <use xlink:href="#DejaVuSans-20" transform="translate(506.298828 0.015625)"/>
      <use xlink:href="#DejaVuSans-74" transform="translate(538.085938 0.015625)"/>
      <use xlink:href="#DejaVuSans-72" transform="translate(577.294922 0.015625)"/>
      <use xlink:href="#DejaVuSans-61" transform="translate(618.408203 0.015625)"/>
      <use xlink:href="#DejaVuSans-6e" transform="translate(679.6875 0.015625)"/>
      <use xlink:href="#DejaVuSans-73" transform="translate(743.066406 0.015625)"/>
      <use xlink:href="#DejaVuSans-66" transform="translate(795.166016 0.015625)"/>
      <use xlink:href="#DejaVuSans-65" transform="translate(830.371094 0.015625)"/>
      <use xlink:href="#DejaVuSans-72" transform="translate(891.894531 0.015625)"/>
      <use xlink:href="#DejaVuSans-20" transform="translate(933.007812 0.015625)"/>
      <use xlink:href="#DejaVuSans-66" transform="translate(964.794922 0.015625)"/>
      <use xlink:href="#DejaVuSans-75" transform="translate(1000 0.015625)"/>
      <use xlink:href="#DejaVuSans-6e" transform="translate(1063.378906 0.015625)"/>
      <use xlink:href="#DejaVuSans-63" transform="translate(1126.757812 0.015625)"/>
      <use xlink:href="#DejaVuSans-74" transform="translate(1181.738281 0.015625)"/>
      <use xlink:href="#DejaVuSans-69" transform="translate(1220.947266 0.015625)"/>
      <use xlink:href="#DejaVuSans-6f" transform="translate(1248.730469 0.015625)"/>
      <use xlink:href="#DejaVuSans-6e" transform="translate(1309.912109 0.015625)"/>
      <use xlink:href="#DejaVuSans-20" transform="translate(1373.291016 0.015625)"/>
      <use xlink:href="#DejaVuSans-Oblique-3d5" transform="translate(1405.078125 0.015625)"/>
      <use xlink:href="#DejaVuSans-Oblique-45" transform="translate(1471.044922 -16.390625) scale(0.7)"/>
     </g>
    </g>
    <g id="line2d_17">
     <path d="M 55.965625 50.118125 
L 65.965625 50.118125 
L 75.965625 50.118125 
" style="fill: none; stroke: #ff7f0e; stroke-width: 1.5; stroke-linecap: square"/>
    </g>
    <g id="text_18">
     <!-- Inhibitory transfer function $\phi_I$ -->
     <g transform="translate(83.965625 53.618125) scale(0.1 -0.1)">
      <defs>
       <path id="DejaVuSans-68" d="M 3513 2113 
L 3513 0 
L 2938 0 
L 2938 2094 
Q 2938 2591 2744 2837 
Q 2550 3084 2163 3084 
Q 1697 3084 1428 2787 
Q 1159 2491 1159 1978 
L 1159 0 
L 581 0 
L 581 4863 
L 1159 4863 
L 1159 2956 
Q 1366 3272 1645 3428 
Q 1925 3584 2291 3584 
Q 2894 3584 3203 3211 
Q 3513 2838 3513 2113 
z
" transform="scale(0.015625)"/>
       <path id="DejaVuSans-62" d="M 3116 1747 
Q 3116 2381 2855 2742 
Q 2594 3103 2138 3103 
Q 1681 3103 1420 2742 
Q 1159 2381 1159 1747 
Q 1159 1113 1420 752 
Q 1681 391 2138 391 
Q 2594 391 2855 752 
Q 3116 1113 3116 1747 
z
M 1159 2969 
Q 1341 3281 1617 3432 
Q 1894 3584 2278 3584 
Q 2916 3584 3314 3078 
Q 3713 2572 3713 1747 
Q 3713 922 3314 415 
Q 2916 -91 2278 -91 
Q 1894 -91 1617 61 
Q 1341 213 1159 525 
L 1159 0 
L 581 0 
L 581 4863 
L 1159 4863 
L 1159 2969 
z
" transform="scale(0.015625)"/>
       <path id="DejaVuSans-Oblique-49" d="M 1081 4666 
L 1716 4666 
L 806 0 
L 172 0 
L 1081 4666 
z
" transform="scale(0.015625)"/>
      </defs>
      <use xlink:href="#DejaVuSans-49" transform="translate(0 0.015625)"/>
      <use xlink:href="#DejaVuSans-6e" transform="translate(29.492188 0.015625)"/>
      <use xlink:href="#DejaVuSans-68" transform="translate(92.871094 0.015625)"/>
      <use xlink:href="#DejaVuSans-69" transform="translate(156.25 0.015625)"/>
      <use xlink:href="#DejaVuSans-62" transform="translate(184.033203 0.015625)"/>
      <use xlink:href="#DejaVuSans-69" transform="translate(247.509766 0.015625)"/>
      <use xlink:href="#DejaVuSans-74" transform="translate(275.292969 0.015625)"/>
      <use xlink:href="#DejaVuSans-6f" transform="translate(314.501953 0.015625)"/>
      <use xlink:href="#DejaVuSans-72" transform="translate(375.683594 0.015625)"/>
      <use xlink:href="#DejaVuSans-79" transform="translate(416.796875 0.015625)"/>
      <use xlink:href="#DejaVuSans-20" transform="translate(475.976562 0.015625)"/>
      <use xlink:href="#DejaVuSans-74" transform="translate(507.763672 0.015625)"/>
      <use xlink:href="#DejaVuSans-72" transform="translate(546.972656 0.015625)"/>
      <use xlink:href="#DejaVuSans-61" transform="translate(588.085938 0.015625)"/>
      <use xlink:href="#DejaVuSans-6e" transform="translate(649.365234 0.015625)"/>
      <use xlink:href="#DejaVuSans-73" transform="translate(712.744141 0.015625)"/>
      <use xlink:href="#DejaVuSans-66" transform="translate(764.84375 0.015625)"/>
      <use xlink:href="#DejaVuSans-65" transform="translate(800.048828 0.015625)"/>
      <use xlink:href="#DejaVuSans-72" transform="translate(861.572266 0.015625)"/>
      <use xlink:href="#DejaVuSans-20" transform="translate(902.685547 0.015625)"/>
      <use xlink:href="#DejaVuSans-66" transform="translate(934.472656 0.015625)"/>
      <use xlink:href="#DejaVuSans-75" transform="translate(969.677734 0.015625)"/>
      <use xlink:href="#DejaVuSans-6e" transform="translate(1033.056641 0.015625)"/>
      <use xlink:href="#DejaVuSans-63" transform="translate(1096.435547 0.015625)"/>
      <use xlink:href="#DejaVuSans-74" transform="translate(1151.416016 0.015625)"/>
      <use xlink:href="#DejaVuSans-69" transform="translate(1190.625 0.015625)"/>
      <use xlink:href="#DejaVuSans-6f" transform="translate(1218.408203 0.015625)"/>
      <use xlink:href="#DejaVuSans-6e" transform="translate(1279.589844 0.015625)"/>
      <use xlink:href="#DejaVuSans-20" transform="translate(1342.96875 0.015625)"/>
      <use xlink:href="#DejaVuSans-Oblique-3d5" transform="translate(1374.755859 0.015625)"/>
      <use xlink:href="#DejaVuSans-Oblique-49" transform="translate(1440.722656 -16.390625) scale(0.7)"/>
     </g>
    </g>
   </g>
  </g>
 </g>
 <defs>
  <clipPath id="p1ee3a04691">
   <rect x="46.965625" y="22.318125" width="390.6" height="277.2"/>
  </clipPath>
 </defs>
</svg>
